<svg width="51" height="51" viewBox="0 0 51 51" fill="none" xmlns="http://www.w3.org/2000/svg">
<rect width="51" height="51" rx="25" fill="#4F90CB"/>
<path fill-rule="evenodd" clip-rule="evenodd" d="M10.0625 25.5001C10.0625 25.2763 10.1711 25.0617 10.3645 24.9035C10.5579 24.7452 10.8202 24.6563 11.0937 24.6563H35.4168L28.9261 19.3475C28.7325 19.189 28.6237 18.9741 28.6237 18.7501C28.6237 18.526 28.7325 18.3111 28.9261 18.1527C29.1198 17.9943 29.3824 17.9053 29.6562 17.9053C29.9301 17.9053 30.1927 17.9943 30.3864 18.1527L38.6364 24.9027C38.7324 24.9811 38.8086 25.0742 38.8606 25.1767C38.9126 25.2792 38.9393 25.3891 38.9393 25.5001C38.9393 25.6111 38.9126 25.721 38.8606 25.8235C38.8086 25.926 38.7324 26.0191 38.6364 26.0975L30.3864 32.8475C30.1927 33.0059 29.9301 33.0949 29.6562 33.0949C29.3824 33.0949 29.1198 33.0059 28.9261 32.8475C28.7325 32.689 28.6237 32.4741 28.6237 32.2501C28.6237 32.026 28.7325 31.8111 28.9261 31.6527L35.4168 26.3438H11.0937C10.8202 26.3438 10.5579 26.2549 10.3645 26.0967C10.1711 25.9385 10.0625 25.7239 10.0625 25.5001Z" fill="white"/>
</svg>
