<svg width="320" height="300" viewBox="0 0 320 300" fill="none" xmlns="http://www.w3.org/2000/svg">
<rect width="320" height="300" fill="white"/>
<path d="M85.94 246V226.4H88.74V243.564H99.352V246H85.94ZM111.385 246V242.864L111.245 242.276V236.928C111.245 235.789 110.909 234.912 110.237 234.296C109.584 233.661 108.594 233.344 107.269 233.344C106.392 233.344 105.533 233.493 104.693 233.792C103.853 234.072 103.144 234.455 102.565 234.94L101.445 232.924C102.21 232.308 103.125 231.841 104.189 231.524C105.272 231.188 106.401 231.02 107.577 231.02C109.612 231.02 111.18 231.515 112.281 232.504C113.382 233.493 113.933 235.005 113.933 237.04V246H111.385ZM106.513 246.168C105.412 246.168 104.441 245.981 103.601 245.608C102.78 245.235 102.145 244.721 101.697 244.068C101.249 243.396 101.025 242.64 101.025 241.8C101.025 240.997 101.212 240.269 101.585 239.616C101.977 238.963 102.602 238.44 103.461 238.048C104.338 237.656 105.514 237.46 106.989 237.46H111.693V239.392H107.101C105.757 239.392 104.852 239.616 104.385 240.064C103.918 240.512 103.685 241.053 103.685 241.688C103.685 242.416 103.974 243.004 104.553 243.452C105.132 243.881 105.934 244.096 106.961 244.096C107.969 244.096 108.846 243.872 109.593 243.424C110.358 242.976 110.909 242.323 111.245 241.464L111.777 243.312C111.422 244.189 110.797 244.889 109.901 245.412C109.005 245.916 107.876 246.168 106.513 246.168ZM126.775 246.168C125.506 246.168 124.358 245.888 123.331 245.328C122.323 244.749 121.521 243.9 120.923 242.78C120.345 241.66 120.055 240.26 120.055 238.58C120.055 236.9 120.354 235.5 120.951 234.38C121.567 233.26 122.379 232.42 123.387 231.86C124.414 231.3 125.543 231.02 126.775 231.02C128.231 231.02 129.519 231.337 130.639 231.972C131.759 232.607 132.646 233.493 133.299 234.632C133.953 235.752 134.279 237.068 134.279 238.58C134.279 240.092 133.953 241.417 133.299 242.556C132.646 243.695 131.759 244.581 130.639 245.216C129.519 245.851 128.231 246.168 126.775 246.168ZM118.907 246V225.224H121.595V235.108L121.315 238.552L121.483 241.996V246H118.907ZM126.551 243.816C127.503 243.816 128.353 243.601 129.099 243.172C129.865 242.743 130.462 242.136 130.891 241.352C131.339 240.549 131.563 239.625 131.563 238.58C131.563 237.516 131.339 236.601 130.891 235.836C130.462 235.052 129.865 234.445 129.099 234.016C128.353 233.587 127.503 233.372 126.551 233.372C125.618 233.372 124.769 233.587 124.003 234.016C123.257 234.445 122.659 235.052 122.211 235.836C121.782 236.601 121.567 237.516 121.567 238.58C121.567 239.625 121.782 240.549 122.211 241.352C122.659 242.136 123.257 242.743 124.003 243.172C124.769 243.601 125.618 243.816 126.551 243.816ZM144.349 246.168C142.856 246.168 141.531 245.841 140.373 245.188C139.216 244.535 138.301 243.639 137.629 242.5C136.957 241.343 136.621 240.036 136.621 238.58C136.621 237.105 136.957 235.799 137.629 234.66C138.301 233.521 139.216 232.635 140.373 232C141.531 231.347 142.856 231.02 144.349 231.02C145.824 231.02 147.14 231.347 148.297 232C149.473 232.635 150.388 233.521 151.041 234.66C151.713 235.78 152.049 237.087 152.049 238.58C152.049 240.055 151.713 241.361 151.041 242.5C150.388 243.639 149.473 244.535 148.297 245.188C147.14 245.841 145.824 246.168 144.349 246.168ZM144.349 243.816C145.301 243.816 146.151 243.601 146.897 243.172C147.663 242.743 148.26 242.136 148.689 241.352C149.119 240.549 149.333 239.625 149.333 238.58C149.333 237.516 149.119 236.601 148.689 235.836C148.26 235.052 147.663 234.445 146.897 234.016C146.151 233.587 145.301 233.372 144.349 233.372C143.397 233.372 142.548 233.587 141.801 234.016C141.055 234.445 140.457 235.052 140.009 235.836C139.561 236.601 139.337 237.516 139.337 238.58C139.337 239.625 139.561 240.549 140.009 241.352C140.457 242.136 141.055 242.743 141.801 243.172C142.548 243.601 143.397 243.816 144.349 243.816ZM155.767 246V231.16H158.343V235.192L158.091 234.184C158.501 233.157 159.192 232.373 160.163 231.832C161.133 231.291 162.328 231.02 163.747 231.02V233.624C163.635 233.605 163.523 233.596 163.411 233.596C163.317 233.596 163.224 233.596 163.131 233.596C161.693 233.596 160.555 234.025 159.715 234.884C158.875 235.743 158.455 236.984 158.455 238.608V246H155.767ZM175.178 246V242.864L175.038 242.276V236.928C175.038 235.789 174.702 234.912 174.03 234.296C173.377 233.661 172.387 233.344 171.062 233.344C170.185 233.344 169.326 233.493 168.486 233.792C167.646 234.072 166.937 234.455 166.358 234.94L165.238 232.924C166.003 232.308 166.918 231.841 167.982 231.524C169.065 231.188 170.194 231.02 171.37 231.02C173.405 231.02 174.973 231.515 176.074 232.504C177.175 233.493 177.726 235.005 177.726 237.04V246H175.178ZM170.306 246.168C169.205 246.168 168.234 245.981 167.394 245.608C166.573 245.235 165.938 244.721 165.49 244.068C165.042 243.396 164.818 242.64 164.818 241.8C164.818 240.997 165.005 240.269 165.378 239.616C165.77 238.963 166.395 238.44 167.254 238.048C168.131 237.656 169.307 237.46 170.782 237.46H175.486V239.392H170.894C169.55 239.392 168.645 239.616 168.178 240.064C167.711 240.512 167.478 241.053 167.478 241.688C167.478 242.416 167.767 243.004 168.346 243.452C168.925 243.881 169.727 244.096 170.754 244.096C171.762 244.096 172.639 243.872 173.386 243.424C174.151 242.976 174.702 242.323 175.038 241.464L175.57 243.312C175.215 244.189 174.59 244.889 173.694 245.412C172.798 245.916 171.669 246.168 170.306 246.168ZM187.796 246.168C186.303 246.168 185.146 245.767 184.324 244.964C183.503 244.161 183.092 243.013 183.092 241.52V227.912H185.78V241.408C185.78 242.211 185.976 242.827 186.368 243.256C186.779 243.685 187.358 243.9 188.104 243.9C188.944 243.9 189.644 243.667 190.204 243.2L191.044 245.132C190.634 245.487 190.139 245.748 189.56 245.916C189 246.084 188.412 246.168 187.796 246.168ZM180.572 233.372V231.16H190.036V233.372H180.572ZM203.506 246V242.864L203.366 242.276V236.928C203.366 235.789 203.03 234.912 202.358 234.296C201.705 233.661 200.715 233.344 199.39 233.344C198.513 233.344 197.654 233.493 196.814 233.792C195.974 234.072 195.265 234.455 194.686 234.94L193.566 232.924C194.331 232.308 195.246 231.841 196.31 231.524C197.393 231.188 198.522 231.02 199.698 231.02C201.733 231.02 203.301 231.515 204.402 232.504C205.503 233.493 206.054 235.005 206.054 237.04V246H203.506ZM198.634 246.168C197.533 246.168 196.562 245.981 195.722 245.608C194.901 245.235 194.266 244.721 193.818 244.068C193.37 243.396 193.146 242.64 193.146 241.8C193.146 240.997 193.333 240.269 193.706 239.616C194.098 238.963 194.723 238.44 195.582 238.048C196.459 237.656 197.635 237.46 199.11 237.46H203.814V239.392H199.222C197.878 239.392 196.973 239.616 196.506 240.064C196.039 240.512 195.806 241.053 195.806 241.688C195.806 242.416 196.095 243.004 196.674 243.452C197.253 243.881 198.055 244.096 199.082 244.096C200.09 244.096 200.967 243.872 201.714 243.424C202.479 242.976 203.03 242.323 203.366 241.464L203.898 243.312C203.543 244.189 202.918 244.889 202.022 245.412C201.126 245.916 199.997 246.168 198.634 246.168ZM211.028 246V231.16H213.604V235.192L213.352 234.184C213.763 233.157 214.454 232.373 215.424 231.832C216.395 231.291 217.59 231.02 219.008 231.02V233.624C218.896 233.605 218.784 233.596 218.672 233.596C218.579 233.596 218.486 233.596 218.392 233.596C216.955 233.596 215.816 234.025 214.976 234.884C214.136 235.743 213.716 236.984 213.716 238.608V246H211.028ZM223.567 251.6C222.858 251.6 222.167 251.479 221.495 251.236C220.823 251.012 220.244 250.676 219.759 250.228L220.907 248.212C221.28 248.567 221.691 248.837 222.139 249.024C222.587 249.211 223.063 249.304 223.567 249.304C224.22 249.304 224.762 249.136 225.191 248.8C225.62 248.464 226.022 247.867 226.395 247.008L227.319 244.964L227.599 244.628L233.423 231.16H236.055L228.859 247.484C228.43 248.529 227.944 249.351 227.403 249.948C226.88 250.545 226.302 250.965 225.667 251.208C225.032 251.469 224.332 251.6 223.567 251.6ZM227.095 246.476L220.319 231.16H223.119L228.887 244.376L227.095 246.476Z" fill="black"/>
<path fill-rule="evenodd" clip-rule="evenodd" d="M143.417 51C142.511 51 141.641 51.36 141.001 52.0007C140.36 52.6415 140 53.5105 140 54.4167V68.0833C140 68.9895 140.36 69.8585 141.001 70.4993C141.641 71.14 142.511 71.5 143.417 71.5H146.833V75.8494C145.834 76.2029 144.968 76.8576 144.356 77.7235C143.744 78.5894 143.416 79.6237 143.417 80.684V170.583C143.417 175.114 145.217 179.459 148.42 182.663C151.624 185.867 155.969 187.667 160.5 187.667C165.031 187.667 169.376 185.867 172.58 182.663C175.783 179.459 177.583 175.114 177.583 170.583V80.6806C177.583 79.6209 177.255 78.5873 176.643 77.7221C176.031 76.8569 175.166 76.2027 174.167 75.8494V71.5H177.583C178.489 71.5 179.359 71.14 179.999 70.4993C180.64 69.8585 181 68.9895 181 68.0833V54.4167C181 53.5105 180.64 52.6415 179.999 52.0007C179.359 51.36 178.489 51 177.583 51H143.417ZM150.25 82.0985C151.25 81.7451 152.115 81.0903 152.727 80.2244C153.339 79.3586 153.667 78.3242 153.667 77.2639V71.5H167.333V77.2673C167.333 78.327 167.662 79.3606 168.274 80.2258C168.886 81.091 169.751 81.7453 170.75 82.0985V98.8334H150.25V82.0985ZM170.75 122.699L153.718 105.667H150.25V109.62L170.75 130.12V122.699ZM163.384 105.667L170.75 113.036V109.032L167.385 105.667H163.384ZM170.75 139.782L150.25 119.282V126.703L170.75 147.203V139.782V139.782ZM170.75 164.286L150.25 143.786V136.365L170.75 156.865V164.286ZM170.323 173.522L150.25 153.449V160.87L167.473 178.093C168.796 176.867 169.793 175.295 170.323 173.522V173.522ZM160.5 180.833C157.782 180.833 155.174 179.753 153.252 177.831C151.33 175.909 150.25 173.302 150.25 170.583V170.532L160.551 180.833H160.5ZM146.833 57.8333V64.6667H174.167V57.8333H146.833Z" fill="#4F90CB"/>
</svg>
