<svg width="53" height="79" viewBox="0 0 53 79" fill="none" xmlns="http://www.w3.org/2000/svg">
<path d="M2.986 76L7.424 66.2H8.81L13.262 76H11.792L7.83 66.984H8.39L4.428 76H2.986ZM4.876 73.55L5.254 72.43H10.77L11.176 73.55H4.876ZM17.5255 76.084C16.8069 76.084 16.1629 75.9253 15.5935 75.608C15.0335 75.2907 14.5902 74.8473 14.2635 74.278C13.9369 73.7087 13.7735 73.046 13.7735 72.29C13.7735 71.534 13.9369 70.876 14.2635 70.316C14.5902 69.7467 15.0335 69.3033 15.5935 68.986C16.1629 68.6687 16.8069 68.51 17.5255 68.51C18.1509 68.51 18.7155 68.65 19.2195 68.93C19.7235 69.21 20.1249 69.63 20.4235 70.19C20.7315 70.75 20.8855 71.45 20.8855 72.29C20.8855 73.13 20.7362 73.83 20.4375 74.39C20.1482 74.95 19.7515 75.3747 19.2475 75.664C18.7435 75.944 18.1695 76.084 17.5255 76.084ZM17.6375 74.908C18.1042 74.908 18.5242 74.8007 18.8975 74.586C19.2802 74.3713 19.5789 74.068 19.7935 73.676C20.0175 73.2747 20.1295 72.8127 20.1295 72.29C20.1295 71.758 20.0175 71.3007 19.7935 70.918C19.5789 70.526 19.2802 70.2227 18.8975 70.008C18.5242 69.7933 18.1042 69.686 17.6375 69.686C17.1615 69.686 16.7369 69.7933 16.3635 70.008C15.9902 70.2227 15.6915 70.526 15.4675 70.918C15.2435 71.3007 15.1315 71.758 15.1315 72.29C15.1315 72.8127 15.2435 73.2747 15.4675 73.676C15.6915 74.068 15.9902 74.3713 16.3635 74.586C16.7369 74.8007 17.1615 74.908 17.6375 74.908ZM20.1715 76V73.998L20.2555 72.276L20.1155 70.554V65.612H21.4595V76H20.1715ZM33.2845 68.51C33.8818 68.51 34.4092 68.6267 34.8665 68.86C35.3238 69.0933 35.6785 69.448 35.9305 69.924C36.1918 70.4 36.3225 71.002 36.3225 71.73V76H34.9785V71.884C34.9785 71.1653 34.8105 70.624 34.4745 70.26C34.1385 69.896 33.6672 69.714 33.0605 69.714C32.6125 69.714 32.2205 69.8073 31.8845 69.994C31.5485 70.1807 31.2872 70.456 31.1005 70.82C30.9232 71.184 30.8345 71.6367 30.8345 72.178V76H29.4905V71.884C29.4905 71.1653 29.3225 70.624 28.9865 70.26C28.6598 69.896 28.1885 69.714 27.5725 69.714C27.1338 69.714 26.7465 69.8073 26.4105 69.994C26.0745 70.1807 25.8132 70.456 25.6265 70.82C25.4398 71.184 25.3465 71.6367 25.3465 72.178V76H24.0025V68.58H25.2905V70.554L25.0805 70.05C25.3138 69.5647 25.6732 69.1867 26.1585 68.916C26.6438 68.6453 27.2085 68.51 27.8525 68.51C28.5618 68.51 29.1732 68.6873 29.6865 69.042C30.1998 69.3873 30.5358 69.9147 30.6945 70.624L30.1485 70.4C30.3725 69.8307 30.7645 69.3733 31.3245 69.028C31.8845 68.6827 32.5378 68.51 33.2845 68.51ZM38.7955 76V68.58H40.1395V76H38.7955ZM39.4675 67.152C39.2062 67.152 38.9868 67.068 38.8095 66.9C38.6415 66.732 38.5575 66.5267 38.5575 66.284C38.5575 66.032 38.6415 65.822 38.8095 65.654C38.9868 65.486 39.2062 65.402 39.4675 65.402C39.7288 65.402 39.9435 65.486 40.1115 65.654C40.2888 65.8127 40.3775 66.0133 40.3775 66.256C40.3775 66.508 40.2935 66.7227 40.1255 66.9C39.9575 67.068 39.7382 67.152 39.4675 67.152ZM46.6676 68.51C47.2743 68.51 47.8063 68.6267 48.2636 68.86C48.7303 69.0933 49.0943 69.448 49.3556 69.924C49.617 70.4 49.7476 71.002 49.7476 71.73V76H48.4036V71.884C48.4036 71.1653 48.2263 70.624 47.8716 70.26C47.5263 69.896 47.0363 69.714 46.4016 69.714C45.9256 69.714 45.5103 69.8073 45.1556 69.994C44.801 70.1807 44.5256 70.456 44.3296 70.82C44.143 71.184 44.0496 71.6367 44.0496 72.178V76H42.7056V68.58H43.9936V70.582L43.7836 70.05C44.0263 69.5647 44.3996 69.1867 44.9036 68.916C45.4076 68.6453 45.9956 68.51 46.6676 68.51Z" fill="#4F90CB"/>
<path d="M26.5 26.5C33.8206 26.5 39.75 20.5706 39.75 13.25C39.75 5.92937 33.8206 0 26.5 0C19.1794 0 13.25 5.92937 13.25 13.25C13.25 20.5706 19.1794 26.5 26.5 26.5ZM26.5 33.125C17.6556 33.125 0 37.5637 0 46.375V53H53V46.375C53 37.5637 35.3444 33.125 26.5 33.125Z" fill="#4F90CB"/>
</svg>
