<svg width="320" height="300" viewBox="0 0 320 300" fill="none" xmlns="http://www.w3.org/2000/svg">
<rect width="320" height="300" fill="white"/>
<path d="M94.704 246.224C93.2107 246.224 91.8293 245.981 90.56 245.496C89.3093 244.992 88.2173 244.292 87.284 243.396C86.3693 242.481 85.6507 241.417 85.128 240.204C84.6053 238.991 84.344 237.656 84.344 236.2C84.344 234.744 84.6053 233.409 85.128 232.196C85.6507 230.983 86.3787 229.928 87.312 229.032C88.2453 228.117 89.3373 227.417 90.588 226.932C91.8573 226.428 93.2387 226.176 94.732 226.176C96.244 226.176 97.6347 226.437 98.904 226.96C100.192 227.464 101.284 228.22 102.18 229.228L100.36 230.992C99.6133 230.208 98.7733 229.629 97.84 229.256C96.9067 228.864 95.908 228.668 94.844 228.668C93.7427 228.668 92.716 228.855 91.764 229.228C90.8307 229.601 90.0187 230.124 89.328 230.796C88.6373 231.468 88.096 232.271 87.704 233.204C87.3307 234.119 87.144 235.117 87.144 236.2C87.144 237.283 87.3307 238.291 87.704 239.224C88.096 240.139 88.6373 240.932 89.328 241.604C90.0187 242.276 90.8307 242.799 91.764 243.172C92.716 243.545 93.7427 243.732 94.844 243.732C95.908 243.732 96.9067 243.545 97.84 243.172C98.7733 242.78 99.6133 242.183 100.36 241.38L102.18 243.144C101.284 244.152 100.192 244.917 98.904 245.44C97.6347 245.963 96.2347 246.224 94.704 246.224ZM114.803 246V242.864L114.663 242.276V236.928C114.663 235.789 114.327 234.912 113.655 234.296C113.002 233.661 112.012 233.344 110.687 233.344C109.81 233.344 108.951 233.493 108.111 233.792C107.271 234.072 106.562 234.455 105.983 234.94L104.863 232.924C105.628 232.308 106.543 231.841 107.607 231.524C108.69 231.188 109.819 231.02 110.995 231.02C113.03 231.02 114.598 231.515 115.699 232.504C116.8 233.493 117.351 235.005 117.351 237.04V246H114.803ZM109.931 246.168C108.83 246.168 107.859 245.981 107.019 245.608C106.198 245.235 105.563 244.721 105.115 244.068C104.667 243.396 104.443 242.64 104.443 241.8C104.443 240.997 104.63 240.269 105.003 239.616C105.395 238.963 106.02 238.44 106.879 238.048C107.756 237.656 108.932 237.46 110.407 237.46H115.111V239.392H110.519C109.175 239.392 108.27 239.616 107.803 240.064C107.336 240.512 107.103 241.053 107.103 241.688C107.103 242.416 107.392 243.004 107.971 243.452C108.55 243.881 109.352 244.096 110.379 244.096C111.387 244.096 112.264 243.872 113.011 243.424C113.776 242.976 114.327 242.323 114.663 241.464L115.195 243.312C114.84 244.189 114.215 244.889 113.319 245.412C112.423 245.916 111.294 246.168 109.931 246.168ZM122.325 246V231.16H124.901V235.192L124.649 234.184C125.06 233.157 125.751 232.373 126.721 231.832C127.692 231.291 128.887 231.02 130.305 231.02V233.624C130.193 233.605 130.081 233.596 129.969 233.596C129.876 233.596 129.783 233.596 129.689 233.596C128.252 233.596 127.113 234.025 126.273 234.884C125.433 235.743 125.013 236.984 125.013 238.608V246H122.325ZM139.614 246.168C138.176 246.168 136.888 245.851 135.75 245.216C134.63 244.581 133.743 243.695 133.09 242.556C132.436 241.417 132.11 240.092 132.11 238.58C132.11 237.068 132.436 235.752 133.09 234.632C133.743 233.493 134.63 232.607 135.75 231.972C136.888 231.337 138.176 231.02 139.614 231.02C140.864 231.02 141.994 231.3 143.002 231.86C144.01 232.42 144.812 233.26 145.41 234.38C146.026 235.5 146.334 236.9 146.334 238.58C146.334 240.26 146.035 241.66 145.438 242.78C144.859 243.9 144.066 244.749 143.058 245.328C142.05 245.888 140.902 246.168 139.614 246.168ZM139.838 243.816C140.771 243.816 141.611 243.601 142.358 243.172C143.123 242.743 143.72 242.136 144.15 241.352C144.598 240.549 144.822 239.625 144.822 238.58C144.822 237.516 144.598 236.601 144.15 235.836C143.72 235.052 143.123 234.445 142.358 234.016C141.611 233.587 140.771 233.372 139.838 233.372C138.886 233.372 138.036 233.587 137.29 234.016C136.543 234.445 135.946 235.052 135.498 235.836C135.05 236.601 134.826 237.516 134.826 238.58C134.826 239.625 135.05 240.549 135.498 241.352C135.946 242.136 136.543 242.743 137.29 243.172C138.036 243.601 138.886 243.816 139.838 243.816ZM144.906 246V241.996L145.074 238.552L144.794 235.108V225.224H147.482V246H144.906ZM152.568 246V231.16H155.256V246H152.568ZM153.912 228.304C153.389 228.304 152.95 228.136 152.596 227.8C152.26 227.464 152.092 227.053 152.092 226.568C152.092 226.064 152.26 225.644 152.596 225.308C152.95 224.972 153.389 224.804 153.912 224.804C154.434 224.804 154.864 224.972 155.2 225.308C155.554 225.625 155.732 226.027 155.732 226.512C155.732 227.016 155.564 227.445 155.228 227.8C154.892 228.136 154.453 228.304 153.912 228.304ZM166.744 246.168C165.251 246.168 163.925 245.841 162.768 245.188C161.611 244.535 160.696 243.639 160.024 242.5C159.352 241.343 159.016 240.036 159.016 238.58C159.016 237.105 159.352 235.799 160.024 234.66C160.696 233.521 161.611 232.635 162.768 232C163.925 231.347 165.251 231.02 166.744 231.02C168.219 231.02 169.535 231.347 170.692 232C171.868 232.635 172.783 233.521 173.436 234.66C174.108 235.78 174.444 237.087 174.444 238.58C174.444 240.055 174.108 241.361 173.436 242.5C172.783 243.639 171.868 244.535 170.692 245.188C169.535 245.841 168.219 246.168 166.744 246.168ZM166.744 243.816C167.696 243.816 168.545 243.601 169.292 243.172C170.057 242.743 170.655 242.136 171.084 241.352C171.513 240.549 171.728 239.625 171.728 238.58C171.728 237.516 171.513 236.601 171.084 235.836C170.655 235.052 170.057 234.445 169.292 234.016C168.545 233.587 167.696 233.372 166.744 233.372C165.792 233.372 164.943 233.587 164.196 234.016C163.449 234.445 162.852 235.052 162.404 235.836C161.956 236.601 161.732 237.516 161.732 238.58C161.732 239.625 161.956 240.549 162.404 241.352C162.852 242.136 163.449 242.743 164.196 243.172C164.943 243.601 165.792 243.816 166.744 243.816ZM178.161 246V225.224H180.849V246H178.161ZM192.338 246.168C190.844 246.168 189.519 245.841 188.362 245.188C187.204 244.535 186.29 243.639 185.618 242.5C184.946 241.343 184.61 240.036 184.61 238.58C184.61 237.105 184.946 235.799 185.618 234.66C186.29 233.521 187.204 232.635 188.362 232C189.519 231.347 190.844 231.02 192.338 231.02C193.812 231.02 195.128 231.347 196.286 232C197.462 232.635 198.376 233.521 199.03 234.66C199.702 235.78 200.038 237.087 200.038 238.58C200.038 240.055 199.702 241.361 199.03 242.5C198.376 243.639 197.462 244.535 196.286 245.188C195.128 245.841 193.812 246.168 192.338 246.168ZM192.338 243.816C193.29 243.816 194.139 243.601 194.886 243.172C195.651 242.743 196.248 242.136 196.678 241.352C197.107 240.549 197.322 239.625 197.322 238.58C197.322 237.516 197.107 236.601 196.678 235.836C196.248 235.052 195.651 234.445 194.886 234.016C194.139 233.587 193.29 233.372 192.338 233.372C191.386 233.372 190.536 233.587 189.79 234.016C189.043 234.445 188.446 235.052 187.998 235.836C187.55 236.601 187.326 237.516 187.326 238.58C187.326 239.625 187.55 240.549 187.998 241.352C188.446 242.136 189.043 242.743 189.79 243.172C190.536 243.601 191.386 243.816 192.338 243.816ZM210.251 251.6C208.888 251.6 207.563 251.404 206.275 251.012C205.006 250.639 203.97 250.097 203.167 249.388L204.455 247.316C205.146 247.913 205.995 248.38 207.003 248.716C208.011 249.071 209.066 249.248 210.167 249.248C211.922 249.248 213.21 248.837 214.031 248.016C214.852 247.195 215.263 245.944 215.263 244.264V241.128L215.543 238.188L215.403 235.22V231.16H217.951V243.984C217.951 246.597 217.298 248.52 215.991 249.752C214.684 250.984 212.771 251.6 210.251 251.6ZM209.915 245.384C208.478 245.384 207.19 245.085 206.051 244.488C204.931 243.872 204.035 243.023 203.363 241.94C202.71 240.857 202.383 239.607 202.383 238.188C202.383 236.751 202.71 235.5 203.363 234.436C204.035 233.353 204.931 232.513 206.051 231.916C207.19 231.319 208.478 231.02 209.915 231.02C211.184 231.02 212.342 231.281 213.387 231.804C214.432 232.308 215.263 233.092 215.879 234.156C216.514 235.22 216.831 236.564 216.831 238.188C216.831 239.793 216.514 241.128 215.879 242.192C215.263 243.256 214.432 244.059 213.387 244.6C212.342 245.123 211.184 245.384 209.915 245.384ZM210.223 243.032C211.212 243.032 212.09 242.827 212.855 242.416C213.62 242.005 214.218 241.436 214.647 240.708C215.095 239.98 215.319 239.14 215.319 238.188C215.319 237.236 215.095 236.396 214.647 235.668C214.218 234.94 213.62 234.38 212.855 233.988C212.09 233.577 211.212 233.372 210.223 233.372C209.234 233.372 208.347 233.577 207.563 233.988C206.798 234.38 206.191 234.94 205.743 235.668C205.314 236.396 205.099 237.236 205.099 238.188C205.099 239.14 205.314 239.98 205.743 240.708C206.191 241.436 206.798 242.005 207.563 242.416C208.347 242.827 209.234 243.032 210.223 243.032ZM223.731 251.6C223.022 251.6 222.331 251.479 221.659 251.236C220.987 251.012 220.408 250.676 219.923 250.228L221.071 248.212C221.444 248.567 221.855 248.837 222.303 249.024C222.751 249.211 223.227 249.304 223.731 249.304C224.384 249.304 224.926 249.136 225.355 248.8C225.784 248.464 226.186 247.867 226.559 247.008L227.483 244.964L227.763 244.628L233.587 231.16H236.219L229.023 247.484C228.594 248.529 228.108 249.351 227.567 249.948C227.044 250.545 226.466 250.965 225.831 251.208C225.196 251.469 224.496 251.6 223.731 251.6ZM227.259 246.476L220.483 231.16H223.283L229.051 244.376L227.259 246.476Z" fill="black"/>
<g clip-path="url(#clip0_22_129)">
<path d="M160 76.4497L153.099 69.3561C136.9 52.7048 107.198 58.451 96.4753 79.3853C91.8361 88.4521 90.5078 101.234 97.5148 117.375H87.1391C66.6571 62.5416 127.227 32.3865 158.306 61.0016C158.884 61.531 159.452 62.0796 160 62.6475C160.543 62.0801 161.108 61.5343 161.694 61.0112C192.783 32.3865 253.344 62.5416 232.862 117.375H222.486C229.493 101.234 228.165 88.4521 223.525 79.3853C212.803 58.451 183.1 52.6952 166.901 69.3465L160 76.4497ZM104.291 146.25H116.948C127.208 157.637 141.232 169.908 160 182.777C178.759 169.908 192.793 157.637 203.053 146.25H215.71C203.534 161.323 185.487 177.531 160 194.375C134.513 177.531 116.466 161.323 104.291 146.25V146.25Z" fill="#4F90CB"/>
<path d="M183.716 81.8973C183.343 80.9654 182.687 80.1737 181.841 79.6329C180.996 79.092 180.002 78.8292 179 78.8812C177.997 78.9332 177.036 79.2974 176.251 79.9228C175.465 80.5482 174.895 81.4034 174.62 82.3689L159.24 136.202L145.216 101.147C144.889 100.334 144.347 99.6255 143.647 99.098C142.947 98.5705 142.117 98.2441 141.245 98.1539C140.374 98.0638 139.494 98.2134 138.701 98.5865C137.908 98.9597 137.232 99.5423 136.746 100.271L118.921 127H87.8125C86.5361 127 85.3121 127.507 84.4095 128.41C83.507 129.312 83 130.536 83 131.813C83 133.089 83.507 134.313 84.4095 135.215C85.3121 136.118 86.5361 136.625 87.8125 136.625H121.5C122.293 136.625 123.073 136.428 123.771 136.054C124.47 135.68 125.065 135.138 125.504 134.479L139.682 113.217L155.534 152.853C155.907 153.785 156.563 154.576 157.409 155.117C158.254 155.658 159.248 155.921 160.25 155.869C161.253 155.817 162.214 155.453 162.999 154.827C163.785 154.202 164.355 153.347 164.63 152.381L180.01 98.5485L194.034 133.603C194.392 134.495 195.008 135.26 195.804 135.798C196.6 136.337 197.539 136.625 198.5 136.625H232.188C233.464 136.625 234.688 136.118 235.59 135.215C236.493 134.313 237 133.089 237 131.813C237 130.536 236.493 129.312 235.59 128.41C234.688 127.507 233.464 127 232.188 127H201.753L183.716 81.8973Z" fill="#4F90CB"/>
</g>
<defs>
<clipPath id="clip0_22_129">
<rect width="154" height="154" fill="white" transform="translate(83 50)"/>
</clipPath>
</defs>
</svg>
