<svg width="320" height="300" viewBox="0 0 320 300" fill="none" xmlns="http://www.w3.org/2000/svg">
<rect width="320" height="300" fill="white"/>
<path d="M97.8017 223.224C96.3083 223.224 94.927 222.981 93.6577 222.496C92.407 221.992 91.315 221.292 90.3817 220.396C89.467 219.481 88.7483 218.417 88.2257 217.204C87.703 215.991 87.4417 214.656 87.4417 213.2C87.4417 211.744 87.703 210.409 88.2257 209.196C88.7483 207.983 89.4763 206.928 90.4097 206.032C91.343 205.117 92.435 204.417 93.6857 203.932C94.955 203.428 96.3363 203.176 97.8297 203.176C99.3417 203.176 100.732 203.437 102.002 203.96C103.29 204.464 104.382 205.22 105.278 206.228L103.458 207.992C102.711 207.208 101.871 206.629 100.938 206.256C100.004 205.864 99.0057 205.668 97.9417 205.668C96.8403 205.668 95.8137 205.855 94.8617 206.228C93.9283 206.601 93.1163 207.124 92.4257 207.796C91.735 208.468 91.1937 209.271 90.8017 210.204C90.4283 211.119 90.2417 212.117 90.2417 213.2C90.2417 214.283 90.4283 215.291 90.8017 216.224C91.1937 217.139 91.735 217.932 92.4257 218.604C93.1163 219.276 93.9283 219.799 94.8617 220.172C95.8137 220.545 96.8403 220.732 97.9417 220.732C99.0057 220.732 100.004 220.545 100.938 220.172C101.871 219.78 102.711 219.183 103.458 218.38L105.278 220.144C104.382 221.152 103.29 221.917 102.002 222.44C100.732 222.963 99.3323 223.224 97.8017 223.224ZM116.804 208.02C118.017 208.02 119.081 208.253 119.996 208.72C120.929 209.187 121.657 209.896 122.18 210.848C122.703 211.8 122.964 213.004 122.964 214.46V223H120.276V214.768C120.276 213.331 119.921 212.248 119.212 211.52C118.521 210.792 117.541 210.428 116.272 210.428C115.32 210.428 114.489 210.615 113.78 210.988C113.071 211.361 112.52 211.912 112.128 212.64C111.755 213.368 111.568 214.273 111.568 215.356V223H108.88V202.224H111.568V212.164L111.036 211.1C111.521 210.129 112.268 209.373 113.276 208.832C114.284 208.291 115.46 208.02 116.804 208.02ZM127.939 223V208.16H130.627V223H127.939ZM129.283 205.304C128.76 205.304 128.321 205.136 127.967 204.8C127.631 204.464 127.463 204.053 127.463 203.568C127.463 203.064 127.631 202.644 127.967 202.308C128.321 201.972 128.76 201.804 129.283 201.804C129.805 201.804 130.235 201.972 130.571 202.308C130.925 202.625 131.103 203.027 131.103 203.512C131.103 204.016 130.935 204.445 130.599 204.8C130.263 205.136 129.824 205.304 129.283 205.304ZM135.759 223V202.224H138.447V223H135.759ZM149.711 223.168C148.274 223.168 146.986 222.851 145.847 222.216C144.727 221.581 143.841 220.695 143.187 219.556C142.534 218.417 142.207 217.092 142.207 215.58C142.207 214.068 142.534 212.752 143.187 211.632C143.841 210.493 144.727 209.607 145.847 208.972C146.986 208.337 148.274 208.02 149.711 208.02C150.962 208.02 152.091 208.3 153.099 208.86C154.107 209.42 154.91 210.26 155.507 211.38C156.123 212.5 156.431 213.9 156.431 215.58C156.431 217.26 156.133 218.66 155.535 219.78C154.957 220.9 154.163 221.749 153.155 222.328C152.147 222.888 150.999 223.168 149.711 223.168ZM149.935 220.816C150.869 220.816 151.709 220.601 152.455 220.172C153.221 219.743 153.818 219.136 154.247 218.352C154.695 217.549 154.919 216.625 154.919 215.58C154.919 214.516 154.695 213.601 154.247 212.836C153.818 212.052 153.221 211.445 152.455 211.016C151.709 210.587 150.869 210.372 149.935 210.372C148.983 210.372 148.134 210.587 147.387 211.016C146.641 211.445 146.043 212.052 145.595 212.836C145.147 213.601 144.923 214.516 144.923 215.58C144.923 216.625 145.147 217.549 145.595 218.352C146.043 219.136 146.641 219.743 147.387 220.172C148.134 220.601 148.983 220.816 149.935 220.816ZM155.003 223V218.996L155.171 215.552L154.891 212.108V202.224H157.579V223H155.003ZM162.665 223V208.16H165.241V212.192L164.989 211.184C165.4 210.157 166.091 209.373 167.061 208.832C168.032 208.291 169.227 208.02 170.645 208.02V210.624C170.533 210.605 170.421 210.596 170.309 210.596C170.216 210.596 170.123 210.596 170.029 210.596C168.592 210.596 167.453 211.025 166.613 211.884C165.773 212.743 165.353 213.984 165.353 215.608V223H162.665ZM180.429 223.168C178.843 223.168 177.443 222.841 176.229 222.188C175.035 221.535 174.101 220.639 173.429 219.5C172.776 218.361 172.449 217.055 172.449 215.58C172.449 214.105 172.767 212.799 173.401 211.66C174.055 210.521 174.941 209.635 176.061 209C177.2 208.347 178.479 208.02 179.897 208.02C181.335 208.02 182.604 208.337 183.705 208.972C184.807 209.607 185.665 210.503 186.281 211.66C186.916 212.799 187.233 214.133 187.233 215.664C187.233 215.776 187.224 215.907 187.205 216.056C187.205 216.205 187.196 216.345 187.177 216.476H174.549V214.544H185.777L184.685 215.216C184.704 214.264 184.508 213.415 184.097 212.668C183.687 211.921 183.117 211.343 182.389 210.932C181.68 210.503 180.849 210.288 179.897 210.288C178.964 210.288 178.133 210.503 177.405 210.932C176.677 211.343 176.108 211.931 175.697 212.696C175.287 213.443 175.081 214.301 175.081 215.272V215.72C175.081 216.709 175.305 217.596 175.753 218.38C176.22 219.145 176.864 219.743 177.685 220.172C178.507 220.601 179.449 220.816 180.513 220.816C181.391 220.816 182.184 220.667 182.893 220.368C183.621 220.069 184.256 219.621 184.797 219.024L186.281 220.76C185.609 221.544 184.769 222.141 183.761 222.552C182.772 222.963 181.661 223.168 180.429 223.168ZM198.89 208.02C200.103 208.02 201.167 208.253 202.082 208.72C203.015 209.187 203.743 209.896 204.266 210.848C204.789 211.8 205.05 213.004 205.05 214.46V223H202.362V214.768C202.362 213.331 202.007 212.248 201.298 211.52C200.607 210.792 199.627 210.428 198.358 210.428C197.406 210.428 196.575 210.615 195.866 210.988C195.157 211.361 194.606 211.912 194.214 212.64C193.841 213.368 193.654 214.273 193.654 215.356V223H190.966V208.16H193.542V212.164L193.122 211.1C193.607 210.129 194.354 209.373 195.362 208.832C196.37 208.291 197.546 208.02 198.89 208.02ZM209.409 210.96L209.241 203.4H211.593L211.397 210.96H209.409ZM220.159 223.168C218.927 223.168 217.751 223 216.631 222.664C215.53 222.328 214.662 221.917 214.027 221.432L215.147 219.304C215.782 219.733 216.566 220.097 217.499 220.396C218.433 220.695 219.385 220.844 220.355 220.844C221.606 220.844 222.502 220.667 223.043 220.312C223.603 219.957 223.883 219.463 223.883 218.828C223.883 218.361 223.715 217.997 223.379 217.736C223.043 217.475 222.595 217.279 222.035 217.148C221.494 217.017 220.887 216.905 220.215 216.812C219.543 216.7 218.871 216.569 218.199 216.42C217.527 216.252 216.911 216.028 216.351 215.748C215.791 215.449 215.343 215.048 215.007 214.544C214.671 214.021 214.503 213.331 214.503 212.472C214.503 211.576 214.755 210.792 215.259 210.12C215.763 209.448 216.473 208.935 217.387 208.58C218.321 208.207 219.422 208.02 220.691 208.02C221.662 208.02 222.642 208.141 223.631 208.384C224.639 208.608 225.461 208.935 226.095 209.364L224.947 211.492C224.275 211.044 223.575 210.736 222.847 210.568C222.119 210.4 221.391 210.316 220.663 210.316C219.487 210.316 218.61 210.512 218.031 210.904C217.453 211.277 217.163 211.763 217.163 212.36C217.163 212.864 217.331 213.256 217.667 213.536C218.022 213.797 218.47 214.003 219.011 214.152C219.571 214.301 220.187 214.432 220.859 214.544C221.531 214.637 222.203 214.768 222.875 214.936C223.547 215.085 224.154 215.3 224.695 215.58C225.255 215.86 225.703 216.252 226.039 216.756C226.394 217.26 226.571 217.932 226.571 218.772C226.571 219.668 226.31 220.443 225.787 221.096C225.265 221.749 224.527 222.263 223.575 222.636C222.623 222.991 221.485 223.168 220.159 223.168ZM82.7874 257.168C81.3501 257.168 80.0621 256.851 78.9234 256.216C77.8034 255.581 76.9168 254.695 76.2634 253.556C75.6101 252.417 75.2834 251.092 75.2834 249.58C75.2834 248.068 75.6101 246.752 76.2634 245.632C76.9168 244.493 77.8034 243.607 78.9234 242.972C80.0621 242.337 81.3501 242.02 82.7874 242.02C84.0381 242.02 85.1674 242.3 86.1754 242.86C87.1834 243.42 87.9861 244.26 88.5834 245.38C89.1994 246.5 89.5074 247.9 89.5074 249.58C89.5074 251.26 89.2088 252.66 88.6114 253.78C88.0328 254.9 87.2394 255.749 86.2314 256.328C85.2234 256.888 84.0754 257.168 82.7874 257.168ZM83.0114 254.816C83.9448 254.816 84.7848 254.601 85.5314 254.172C86.2968 253.743 86.8941 253.136 87.3234 252.352C87.7714 251.549 87.9954 250.625 87.9954 249.58C87.9954 248.516 87.7714 247.601 87.3234 246.836C86.8941 246.052 86.2968 245.445 85.5314 245.016C84.7848 244.587 83.9448 244.372 83.0114 244.372C82.0594 244.372 81.2101 244.587 80.4634 245.016C79.7168 245.445 79.1194 246.052 78.6714 246.836C78.2234 247.601 77.9994 248.516 77.9994 249.58C77.9994 250.625 78.2234 251.549 78.6714 252.352C79.1194 253.136 79.7168 253.743 80.4634 254.172C81.2101 254.601 82.0594 254.816 83.0114 254.816ZM88.0794 257V252.996L88.2474 249.552L87.9674 246.108V236.224H90.6554V257H88.0794ZM102.349 257.168C100.763 257.168 99.3627 256.841 98.1494 256.188C96.9547 255.535 96.0214 254.639 95.3494 253.5C94.696 252.361 94.3694 251.055 94.3694 249.58C94.3694 248.105 94.6867 246.799 95.3214 245.66C95.9747 244.521 96.8614 243.635 97.9814 243C99.12 242.347 100.399 242.02 101.817 242.02C103.255 242.02 104.524 242.337 105.625 242.972C106.727 243.607 107.585 244.503 108.201 245.66C108.836 246.799 109.153 248.133 109.153 249.664C109.153 249.776 109.144 249.907 109.125 250.056C109.125 250.205 109.116 250.345 109.097 250.476H96.4694V248.544H107.697L106.605 249.216C106.624 248.264 106.428 247.415 106.017 246.668C105.607 245.921 105.037 245.343 104.309 244.932C103.6 244.503 102.769 244.288 101.817 244.288C100.884 244.288 100.053 244.503 99.3254 244.932C98.5974 245.343 98.028 245.931 97.6174 246.696C97.2067 247.443 97.0014 248.301 97.0014 249.272V249.72C97.0014 250.709 97.2254 251.596 97.6734 252.38C98.14 253.145 98.784 253.743 99.6054 254.172C100.427 254.601 101.369 254.816 102.433 254.816C103.311 254.816 104.104 254.667 104.813 254.368C105.541 254.069 106.176 253.621 106.717 253.024L108.201 254.76C107.529 255.544 106.689 256.141 105.681 256.552C104.692 256.963 103.581 257.168 102.349 257.168ZM120.754 257.168C119.522 257.168 118.393 256.888 117.366 256.328C116.358 255.749 115.546 254.9 114.93 253.78C114.333 252.66 114.034 251.26 114.034 249.58C114.034 247.9 114.323 246.5 114.902 245.38C115.499 244.26 116.302 243.42 117.31 242.86C118.337 242.3 119.485 242.02 120.754 242.02C122.21 242.02 123.498 242.337 124.618 242.972C125.738 243.607 126.625 244.493 127.278 245.632C127.931 246.752 128.258 248.068 128.258 249.58C128.258 251.092 127.931 252.417 127.278 253.556C126.625 254.695 125.738 255.581 124.618 256.216C123.498 256.851 122.21 257.168 120.754 257.168ZM112.886 262.432V242.16H115.462V246.164L115.294 249.608L115.574 253.052V262.432H112.886ZM120.53 254.816C121.482 254.816 122.331 254.601 123.078 254.172C123.843 253.743 124.441 253.136 124.87 252.352C125.318 251.549 125.542 250.625 125.542 249.58C125.542 248.516 125.318 247.601 124.87 246.836C124.441 246.052 123.843 245.445 123.078 245.016C122.331 244.587 121.482 244.372 120.53 244.372C119.597 244.372 118.747 244.587 117.982 245.016C117.235 245.445 116.638 246.052 116.19 246.836C115.761 247.601 115.546 248.516 115.546 249.58C115.546 250.625 115.761 251.549 116.19 252.352C116.638 253.136 117.235 253.743 117.982 254.172C118.747 254.601 119.597 254.816 120.53 254.816ZM141.047 257V253.864L140.907 253.276V247.928C140.907 246.789 140.571 245.912 139.899 245.296C139.246 244.661 138.256 244.344 136.931 244.344C136.054 244.344 135.195 244.493 134.355 244.792C133.515 245.072 132.806 245.455 132.227 245.94L131.107 243.924C131.872 243.308 132.787 242.841 133.851 242.524C134.934 242.188 136.063 242.02 137.239 242.02C139.274 242.02 140.842 242.515 141.943 243.504C143.044 244.493 143.595 246.005 143.595 248.04V257H141.047ZM136.175 257.168C135.074 257.168 134.103 256.981 133.263 256.608C132.442 256.235 131.807 255.721 131.359 255.068C130.911 254.396 130.687 253.64 130.687 252.8C130.687 251.997 130.874 251.269 131.247 250.616C131.639 249.963 132.264 249.44 133.123 249.048C134 248.656 135.176 248.46 136.651 248.46H141.355V250.392H136.763C135.419 250.392 134.514 250.616 134.047 251.064C133.58 251.512 133.347 252.053 133.347 252.688C133.347 253.416 133.636 254.004 134.215 254.452C134.794 254.881 135.596 255.096 136.623 255.096C137.631 255.096 138.508 254.872 139.255 254.424C140.02 253.976 140.571 253.323 140.907 252.464L141.439 254.312C141.084 255.189 140.459 255.889 139.563 256.412C138.667 256.916 137.538 257.168 136.175 257.168ZM148.569 257V242.16H151.145V246.192L150.893 245.184C151.304 244.157 151.995 243.373 152.965 242.832C153.936 242.291 155.131 242.02 156.549 242.02V244.624C156.437 244.605 156.325 244.596 156.213 244.596C156.12 244.596 156.027 244.596 155.933 244.596C154.496 244.596 153.357 245.025 152.517 245.884C151.677 246.743 151.257 247.984 151.257 249.608V257H148.569ZM165.56 257.168C164.067 257.168 162.909 256.767 162.088 255.964C161.267 255.161 160.856 254.013 160.856 252.52V238.912H163.544V252.408C163.544 253.211 163.74 253.827 164.132 254.256C164.543 254.685 165.121 254.9 165.868 254.9C166.708 254.9 167.408 254.667 167.968 254.2L168.808 256.132C168.397 256.487 167.903 256.748 167.324 256.916C166.764 257.084 166.176 257.168 165.56 257.168ZM158.336 244.372V242.16H167.8V244.372H158.336ZM190.622 242.02C191.816 242.02 192.871 242.253 193.786 242.72C194.7 243.187 195.41 243.896 195.914 244.848C196.436 245.8 196.698 247.004 196.698 248.46V257H194.01V248.768C194.01 247.331 193.674 246.248 193.002 245.52C192.33 244.792 191.387 244.428 190.174 244.428C189.278 244.428 188.494 244.615 187.822 244.988C187.15 245.361 186.627 245.912 186.254 246.64C185.899 247.368 185.722 248.273 185.722 249.356V257H183.034V248.768C183.034 247.331 182.698 246.248 182.026 245.52C181.372 244.792 180.43 244.428 179.198 244.428C178.32 244.428 177.546 244.615 176.874 244.988C176.202 245.361 175.679 245.912 175.306 246.64C174.932 247.368 174.746 248.273 174.746 249.356V257H172.058V242.16H174.634V246.108L174.214 245.1C174.68 244.129 175.399 243.373 176.37 242.832C177.34 242.291 178.47 242.02 179.758 242.02C181.176 242.02 182.399 242.375 183.426 243.084C184.452 243.775 185.124 244.829 185.442 246.248L184.35 245.8C184.798 244.661 185.582 243.747 186.702 243.056C187.822 242.365 189.128 242.02 190.622 242.02ZM208.252 257.168C206.665 257.168 205.265 256.841 204.052 256.188C202.857 255.535 201.924 254.639 201.252 253.5C200.598 252.361 200.272 251.055 200.272 249.58C200.272 248.105 200.589 246.799 201.224 245.66C201.877 244.521 202.764 243.635 203.884 243C205.022 242.347 206.301 242.02 207.72 242.02C209.157 242.02 210.426 242.337 211.528 242.972C212.629 243.607 213.488 244.503 214.104 245.66C214.738 246.799 215.056 248.133 215.056 249.664C215.056 249.776 215.046 249.907 215.028 250.056C215.028 250.205 215.018 250.345 215 250.476H202.372V248.544H213.6L212.508 249.216C212.526 248.264 212.33 247.415 211.92 246.668C211.509 245.921 210.94 245.343 210.212 244.932C209.502 244.503 208.672 244.288 207.72 244.288C206.786 244.288 205.956 244.503 205.228 244.932C204.5 245.343 203.93 245.931 203.52 246.696C203.109 247.443 202.904 248.301 202.904 249.272V249.72C202.904 250.709 203.128 251.596 203.576 252.38C204.042 253.145 204.686 253.743 205.508 254.172C206.329 254.601 207.272 254.816 208.336 254.816C209.213 254.816 210.006 254.667 210.716 254.368C211.444 254.069 212.078 253.621 212.62 253.024L214.104 254.76C213.432 255.544 212.592 256.141 211.584 256.552C210.594 256.963 209.484 257.168 208.252 257.168ZM226.712 242.02C227.926 242.02 228.99 242.253 229.904 242.72C230.838 243.187 231.566 243.896 232.088 244.848C232.611 245.8 232.872 247.004 232.872 248.46V257H230.184V248.768C230.184 247.331 229.83 246.248 229.12 245.52C228.43 244.792 227.45 244.428 226.18 244.428C225.228 244.428 224.398 244.615 223.688 244.988C222.979 245.361 222.428 245.912 222.036 246.64C221.663 247.368 221.476 248.273 221.476 249.356V257H218.788V242.16H221.364V246.164L220.944 245.1C221.43 244.129 222.176 243.373 223.184 242.832C224.192 242.291 225.368 242.02 226.712 242.02ZM242.943 257.168C241.449 257.168 240.292 256.767 239.471 255.964C238.649 255.161 238.239 254.013 238.239 252.52V238.912H240.927V252.408C240.927 253.211 241.123 253.827 241.515 254.256C241.925 254.685 242.504 254.9 243.251 254.9C244.091 254.9 244.791 254.667 245.351 254.2L246.191 256.132C245.78 256.487 245.285 256.748 244.707 256.916C244.147 257.084 243.559 257.168 242.943 257.168ZM235.719 244.372V242.16H245.183V244.372H235.719Z" fill="black"/>
<path d="M187.083 161.494C181.089 161.494 176.25 155.428 176.25 147.917C176.25 140.478 181.089 134.411 187.083 134.411C193.078 134.411 197.917 140.478 197.917 147.917C197.917 155.428 193.078 161.494 187.083 161.494ZM160 104.583C151.045 104.583 143.75 98.5166 143.75 91.0777C143.75 83.5666 151.045 77.5 160 77.5C168.956 77.5 176.25 83.5666 176.25 91.0777C176.25 98.5166 168.956 104.583 160 104.583ZM132.917 161.494C126.922 161.494 122.083 155.428 122.083 147.917C122.083 140.478 126.922 134.411 132.917 134.411C138.911 134.411 143.75 140.478 143.75 147.917C143.75 155.428 138.911 161.494 132.917 161.494ZM160 82.9166C162.961 82.9166 165.417 85.3722 165.417 88.3333C165.417 91.2944 162.961 93.75 160 93.75C157.039 93.75 154.583 91.2944 154.583 88.3333C154.583 85.3722 157.039 82.9166 160 82.9166ZM208.75 110C206.439 110 204.2 110.506 202.178 111.444C198.711 107.039 194.017 103.283 188.383 100.394C192.5 94.6166 194.956 87.6111 194.956 80.0278V79.5944C202.828 77.9333 208.75 70.9278 208.75 62.4778C208.75 52.8722 200.878 45 191.272 45C186.289 45 181.667 47.0944 178.633 50.4167C173.062 46.8791 166.599 45.0005 160 45.0005C153.401 45.0005 146.938 46.8791 141.367 50.4167C138.333 47.0944 133.711 45 128.728 45C119.122 45 111.25 52.8722 111.25 62.4778C111.25 70.8555 117.172 77.8611 124.972 79.5944V80.0278C124.972 87.6111 127.5 94.6889 131.545 100.394C125.983 103.283 121.289 107.039 117.822 111.444C115.354 110.333 112.647 109.858 109.947 110.064C107.248 110.27 104.644 111.149 102.373 112.623C100.102 114.096 98.2373 116.115 96.9491 118.496C95.661 120.877 94.9908 123.543 95.0001 126.25C95.0001 135.278 102.222 142.5 111.25 142.5H111.683C111.395 144.233 111.25 146.111 111.25 147.917C111.25 162.867 120.928 175 132.917 175C140.211 175 146.639 170.45 150.611 163.517C153.644 163.95 156.75 164.167 160 164.167C163.25 164.167 166.356 163.95 169.389 163.517C173.361 170.45 179.789 175 187.083 175C199.072 175 208.75 162.867 208.75 147.917C208.75 146.111 208.606 144.233 208.317 142.5H208.75C217.778 142.5 225 135.278 225 126.25C225 117.222 217.778 110 208.75 110Z" fill="#4F90CB"/>
</svg>
