<svg width="320" height="300" viewBox="0 0 320 300" fill="none" xmlns="http://www.w3.org/2000/svg">
<rect width="320" height="300" fill="white"/>
<path d="M220.697 66.5948C217.343 61.71 212.758 57.7981 207.406 55.255C202.054 52.7119 196.125 51.6279 190.219 52.1128C176.33 53.6901 172.713 60.1006 160.299 61.3226C147.889 60.1006 144.266 53.6901 130.379 52.1128C124.473 51.6279 118.545 52.7119 113.193 55.255C107.841 57.7981 103.255 61.71 99.9012 66.5948C91.9337 78.7628 93.6815 96.9397 105.136 110.847C107.638 113.787 109.103 117.467 109.307 121.322C109.992 139.005 113.358 188.754 129.495 192.123C141.946 194.723 135.359 135.22 160.299 135.992C185.236 135.22 178.655 194.72 191.103 192.123C207.241 188.754 210.603 139.005 211.291 121.322C211.495 117.467 212.961 113.787 215.463 110.847C226.917 96.9397 228.665 78.7628 220.697 66.5948Z" stroke="#4F90CB" stroke-width="6" stroke-miterlimit="10"/>
<path d="M96.94 246.295V226.695H105.2C107.291 226.695 109.129 227.106 110.716 227.927C112.321 228.748 113.563 229.896 114.44 231.371C115.336 232.846 115.784 234.554 115.784 236.495C115.784 238.436 115.336 240.144 114.44 241.619C113.563 243.094 112.321 244.242 110.716 245.063C109.129 245.884 107.291 246.295 105.2 246.295H96.94ZM99.74 243.859H105.032C106.656 243.859 108.056 243.551 109.232 242.935C110.427 242.319 111.351 241.46 112.004 240.359C112.657 239.239 112.984 237.951 112.984 236.495C112.984 235.02 112.657 233.732 112.004 232.631C111.351 231.53 110.427 230.671 109.232 230.055C108.056 229.439 106.656 229.131 105.032 229.131H99.74V243.859ZM126.289 246.463C124.702 246.463 123.302 246.136 122.089 245.483C120.894 244.83 119.961 243.934 119.289 242.795C118.635 241.656 118.309 240.35 118.309 238.875C118.309 237.4 118.626 236.094 119.261 234.955C119.914 233.816 120.801 232.93 121.921 232.295C123.059 231.642 124.338 231.315 125.757 231.315C127.194 231.315 128.463 231.632 129.565 232.267C130.666 232.902 131.525 233.798 132.141 234.955C132.775 236.094 133.093 237.428 133.093 238.959C133.093 239.071 133.083 239.202 133.065 239.351C133.065 239.5 133.055 239.64 133.037 239.771H120.409V237.839H131.637L130.545 238.511C130.563 237.559 130.367 236.71 129.957 235.963C129.546 235.216 128.977 234.638 128.249 234.227C127.539 233.798 126.709 233.583 125.757 233.583C124.823 233.583 123.993 233.798 123.265 234.227C122.537 234.638 121.967 235.226 121.557 235.991C121.146 236.738 120.941 237.596 120.941 238.567V239.015C120.941 240.004 121.165 240.891 121.613 241.675C122.079 242.44 122.723 243.038 123.545 243.467C124.366 243.896 125.309 244.111 126.373 244.111C127.25 244.111 128.043 243.962 128.753 243.663C129.481 243.364 130.115 242.916 130.657 242.319L132.141 244.055C131.469 244.839 130.629 245.436 129.621 245.847C128.631 246.258 127.521 246.463 126.289 246.463ZM144.749 231.315C145.963 231.315 147.027 231.548 147.941 232.015C148.875 232.482 149.603 233.191 150.125 234.143C150.648 235.095 150.909 236.299 150.909 237.755V246.295H148.221V238.063C148.221 236.626 147.867 235.543 147.157 234.815C146.467 234.087 145.487 233.723 144.217 233.723C143.265 233.723 142.435 233.91 141.725 234.283C141.016 234.656 140.465 235.207 140.073 235.935C139.7 236.663 139.513 237.568 139.513 238.651V246.295H136.825V231.455H139.401V235.459L138.981 234.395C139.467 233.424 140.213 232.668 141.221 232.127C142.229 231.586 143.405 231.315 144.749 231.315ZM160.98 246.463C159.487 246.463 158.329 246.062 157.508 245.259C156.687 244.456 156.276 243.308 156.276 241.815V228.207H158.964V241.703C158.964 242.506 159.16 243.122 159.552 243.551C159.963 243.98 160.541 244.195 161.288 244.195C162.128 244.195 162.828 243.962 163.388 243.495L164.228 245.427C163.817 245.782 163.323 246.043 162.744 246.211C162.184 246.379 161.596 246.463 160.98 246.463ZM153.756 233.667V231.455H163.22V233.667H153.756ZM167.478 246.295V231.455H170.166V246.295H167.478ZM168.822 228.599C168.299 228.599 167.86 228.431 167.506 228.095C167.17 227.759 167.002 227.348 167.002 226.863C167.002 226.359 167.17 225.939 167.506 225.603C167.86 225.267 168.299 225.099 168.822 225.099C169.344 225.099 169.774 225.267 170.11 225.603C170.464 225.92 170.642 226.322 170.642 226.807C170.642 227.311 170.474 227.74 170.138 228.095C169.802 228.431 169.363 228.599 168.822 228.599ZM179.554 246.463C178.322 246.463 177.146 246.295 176.026 245.959C174.925 245.623 174.057 245.212 173.422 244.727L174.542 242.599C175.177 243.028 175.961 243.392 176.894 243.691C177.827 243.99 178.779 244.139 179.75 244.139C181.001 244.139 181.897 243.962 182.438 243.607C182.998 243.252 183.278 242.758 183.278 242.123C183.278 241.656 183.11 241.292 182.774 241.031C182.438 240.77 181.99 240.574 181.43 240.443C180.889 240.312 180.282 240.2 179.61 240.107C178.938 239.995 178.266 239.864 177.594 239.715C176.922 239.547 176.306 239.323 175.746 239.043C175.186 238.744 174.738 238.343 174.402 237.839C174.066 237.316 173.898 236.626 173.898 235.767C173.898 234.871 174.15 234.087 174.654 233.415C175.158 232.743 175.867 232.23 176.782 231.875C177.715 231.502 178.817 231.315 180.086 231.315C181.057 231.315 182.037 231.436 183.026 231.679C184.034 231.903 184.855 232.23 185.49 232.659L184.342 234.787C183.67 234.339 182.97 234.031 182.242 233.863C181.514 233.695 180.786 233.611 180.058 233.611C178.882 233.611 178.005 233.807 177.426 234.199C176.847 234.572 176.558 235.058 176.558 235.655C176.558 236.159 176.726 236.551 177.062 236.831C177.417 237.092 177.865 237.298 178.406 237.447C178.966 237.596 179.582 237.727 180.254 237.839C180.926 237.932 181.598 238.063 182.27 238.231C182.942 238.38 183.549 238.595 184.09 238.875C184.65 239.155 185.098 239.547 185.434 240.051C185.789 240.555 185.966 241.227 185.966 242.067C185.966 242.963 185.705 243.738 185.182 244.391C184.659 245.044 183.922 245.558 182.97 245.931C182.018 246.286 180.879 246.463 179.554 246.463ZM194.421 246.463C192.928 246.463 191.771 246.062 190.949 245.259C190.128 244.456 189.717 243.308 189.717 241.815V228.207H192.405V241.703C192.405 242.506 192.601 243.122 192.993 243.551C193.404 243.98 193.983 244.195 194.729 244.195C195.569 244.195 196.269 243.962 196.829 243.495L197.669 245.427C197.259 245.782 196.764 246.043 196.185 246.211C195.625 246.379 195.037 246.463 194.421 246.463ZM187.197 233.667V231.455H196.661V233.667H187.197ZM200.919 246.295V231.455H203.495V235.487L203.243 234.479C203.654 233.452 204.344 232.668 205.315 232.127C206.286 231.586 207.48 231.315 208.899 231.315V233.919C208.787 233.9 208.675 233.891 208.563 233.891C208.47 233.891 208.376 233.891 208.283 233.891C206.846 233.891 205.707 234.32 204.867 235.179C204.027 236.038 203.607 237.279 203.607 238.903V246.295H200.919ZM213.458 251.895C212.748 251.895 212.058 251.774 211.386 251.531C210.714 251.307 210.135 250.971 209.65 250.523L210.798 248.507C211.171 248.862 211.582 249.132 212.03 249.319C212.478 249.506 212.954 249.599 213.458 249.599C214.111 249.599 214.652 249.431 215.082 249.095C215.511 248.759 215.912 248.162 216.286 247.303L217.21 245.259L217.49 244.923L223.314 231.455H225.946L218.75 247.779C218.32 248.824 217.835 249.646 217.294 250.243C216.771 250.84 216.192 251.26 215.558 251.503C214.923 251.764 214.223 251.895 213.458 251.895ZM216.986 246.771L210.21 231.455H213.01L218.778 244.671L216.986 246.771Z" fill="black"/>
</svg>
