<svg width="50" height="79" viewBox="0 0 50 79" fill="none" xmlns="http://www.w3.org/2000/svg">
<g clip-path="url(#clip0_51_15)">
<path d="M25 28C32.8906 28 39.2857 21.7328 39.2857 14C39.2857 6.26719 32.8906 0 25 0C17.1094 0 10.7143 6.26719 10.7143 14C10.7143 21.7328 17.1094 28 25 28ZM14.2857 34.0375C6.02679 36.4109 0 43.8922 0 52.7516C0 54.5453 1.48438 56 3.31473 56H46.6853C48.5156 56 50 54.5453 50 52.7516C50 43.8922 43.9732 36.4109 35.7143 34.0375V39.5938C38.7946 40.3703 41.0714 43.1156 41.0714 46.375V50.75C41.0714 51.7125 40.2679 52.5 39.2857 52.5H37.5C36.5179 52.5 35.7143 51.7125 35.7143 50.75C35.7143 49.7875 36.5179 49 37.5 49V46.375C37.5 44.4391 35.904 42.875 33.9286 42.875C31.9531 42.875 30.3571 44.4391 30.3571 46.375V49C31.3393 49 32.1429 49.7875 32.1429 50.75C32.1429 51.7125 31.3393 52.5 30.3571 52.5H28.5714C27.5893 52.5 26.7857 51.7125 26.7857 50.75V46.375C26.7857 43.1156 29.0625 40.3703 32.1429 39.5938V33.3484C31.4732 33.2828 30.7924 33.25 30.1004 33.25H19.8996C19.2076 33.25 18.5268 33.2828 17.8571 33.3484V40.5016C20.4353 41.2562 22.3214 43.5969 22.3214 46.375C22.3214 49.7547 19.5201 52.5 16.0714 52.5C12.6228 52.5 9.82143 49.7547 9.82143 46.375C9.82143 43.5969 11.7076 41.2562 14.2857 40.5016V34.0375V34.0375ZM16.0714 49C17.5558 49 18.75 47.8297 18.75 46.375C18.75 44.9203 17.5558 43.75 16.0714 43.75C14.5871 43.75 13.3929 44.9203 13.3929 46.375C13.3929 47.8297 14.5871 49 16.0714 49Z" fill="#4F90CB"/>
</g>
<path d="M2.47 76V66.2H6.6C7.64533 66.2 8.56467 66.4053 9.358 66.816C10.1607 67.2267 10.7813 67.8007 11.22 68.538C11.668 69.2753 11.892 70.1293 11.892 71.1C11.892 72.0707 11.668 72.9247 11.22 73.662C10.7813 74.3993 10.1607 74.9733 9.358 75.384C8.56467 75.7947 7.64533 76 6.6 76H2.47ZM3.87 74.782H6.516C7.328 74.782 8.028 74.628 8.616 74.32C9.21333 74.012 9.67533 73.5827 10.002 73.032C10.3287 72.472 10.492 71.828 10.492 71.1C10.492 70.3627 10.3287 69.7187 10.002 69.168C9.67533 68.6173 9.21333 68.188 8.616 67.88C8.028 67.572 7.328 67.418 6.516 67.418H3.87V74.782ZM17.0184 76.084C16.2717 76.084 15.6091 75.9207 15.0304 75.594C14.4517 75.2673 13.9944 74.8193 13.6584 74.25C13.3224 73.6713 13.1544 73.018 13.1544 72.29C13.1544 71.5527 13.3224 70.8993 13.6584 70.33C13.9944 69.7607 14.4517 69.3173 15.0304 69C15.6091 68.6733 16.2717 68.51 17.0184 68.51C17.7557 68.51 18.4137 68.6733 18.9924 69C19.5804 69.3173 20.0377 69.7607 20.3644 70.33C20.7004 70.89 20.8684 71.5433 20.8684 72.29C20.8684 73.0273 20.7004 73.6807 20.3644 74.25C20.0377 74.8193 19.5804 75.2673 18.9924 75.594C18.4137 75.9207 17.7557 76.084 17.0184 76.084ZM17.0184 74.908C17.4944 74.908 17.9191 74.8007 18.2924 74.586C18.6751 74.3713 18.9737 74.068 19.1884 73.676C19.4031 73.2747 19.5104 72.8127 19.5104 72.29C19.5104 71.758 19.4031 71.3007 19.1884 70.918C18.9737 70.526 18.6751 70.2227 18.2924 70.008C17.9191 69.7933 17.4944 69.686 17.0184 69.686C16.5424 69.686 16.1177 69.7933 15.7444 70.008C15.3711 70.2227 15.0724 70.526 14.8484 70.918C14.6244 71.3007 14.5124 71.758 14.5124 72.29C14.5124 72.8127 14.6244 73.2747 14.8484 73.676C15.0724 74.068 15.3711 74.3713 15.7444 74.586C16.1177 74.8007 16.5424 74.908 17.0184 74.908ZM25.9611 76.084C25.2051 76.084 24.5285 75.9207 23.9311 75.594C23.3431 75.2673 22.8811 74.8193 22.5451 74.25C22.2091 73.6807 22.0411 73.0273 22.0411 72.29C22.0411 71.5527 22.2091 70.8993 22.5451 70.33C22.8811 69.7607 23.3431 69.3173 23.9311 69C24.5285 68.6733 25.2051 68.51 25.9611 68.51C26.6331 68.51 27.2305 68.6453 27.7531 68.916C28.2851 69.1773 28.6958 69.5693 28.9851 70.092L27.9631 70.75C27.7205 70.386 27.4218 70.12 27.0671 69.952C26.7218 69.7747 26.3485 69.686 25.9471 69.686C25.4618 69.686 25.0278 69.7933 24.6451 70.008C24.2625 70.2227 23.9591 70.526 23.7351 70.918C23.5111 71.3007 23.3991 71.758 23.3991 72.29C23.3991 72.822 23.5111 73.284 23.7351 73.676C23.9591 74.068 24.2625 74.3713 24.6451 74.586C25.0278 74.8007 25.4618 74.908 25.9471 74.908C26.3485 74.908 26.7218 74.824 27.0671 74.656C27.4218 74.4787 27.7205 74.208 27.9631 73.844L28.9851 74.488C28.6958 75.0013 28.2851 75.398 27.7531 75.678C27.2305 75.9487 26.6331 76.084 25.9611 76.084ZM33.3689 76.084C32.6222 76.084 32.0435 75.8833 31.6329 75.482C31.2222 75.0807 31.0169 74.5067 31.0169 73.76V66.956H32.3609V73.704C32.3609 74.1053 32.4589 74.4133 32.6549 74.628C32.8602 74.8427 33.1495 74.95 33.5229 74.95C33.9429 74.95 34.2929 74.8333 34.5729 74.6L34.9929 75.566C34.7875 75.7433 34.5402 75.874 34.2509 75.958C33.9709 76.042 33.6769 76.084 33.3689 76.084ZM29.7569 69.686V68.58H34.4889V69.686H29.7569ZM39.5497 76.084C38.803 76.084 38.1403 75.9207 37.5617 75.594C36.983 75.2673 36.5257 74.8193 36.1897 74.25C35.8537 73.6713 35.6857 73.018 35.6857 72.29C35.6857 71.5527 35.8537 70.8993 36.1897 70.33C36.5257 69.7607 36.983 69.3173 37.5617 69C38.1403 68.6733 38.803 68.51 39.5497 68.51C40.287 68.51 40.945 68.6733 41.5237 69C42.1117 69.3173 42.569 69.7607 42.8957 70.33C43.2317 70.89 43.3997 71.5433 43.3997 72.29C43.3997 73.0273 43.2317 73.6807 42.8957 74.25C42.569 74.8193 42.1117 75.2673 41.5237 75.594C40.945 75.9207 40.287 76.084 39.5497 76.084ZM39.5497 74.908C40.0257 74.908 40.4503 74.8007 40.8237 74.586C41.2063 74.3713 41.505 74.068 41.7197 73.676C41.9343 73.2747 42.0417 72.8127 42.0417 72.29C42.0417 71.758 41.9343 71.3007 41.7197 70.918C41.505 70.526 41.2063 70.2227 40.8237 70.008C40.4503 69.7933 40.0257 69.686 39.5497 69.686C39.0737 69.686 38.649 69.7933 38.2757 70.008C37.9023 70.2227 37.6037 70.526 37.3797 70.918C37.1557 71.3007 37.0437 71.758 37.0437 72.29C37.0437 72.8127 37.1557 73.2747 37.3797 73.676C37.6037 74.068 37.9023 74.3713 38.2757 74.586C38.649 74.8007 39.0737 74.908 39.5497 74.908ZM45.2584 76V68.58H46.5464V70.596L46.4204 70.092C46.6257 69.5787 46.971 69.1867 47.4564 68.916C47.9417 68.6453 48.539 68.51 49.2484 68.51V69.812C49.1924 69.8027 49.1364 69.798 49.0804 69.798C49.0337 69.798 48.987 69.798 48.9404 69.798C48.2217 69.798 47.6524 70.0127 47.2324 70.442C46.8124 70.8713 46.6024 71.492 46.6024 72.304V76H45.2584Z" fill="#4F90CB"/>
<defs>
<clipPath id="clip0_51_15">
<rect width="50" height="56" fill="white"/>
</clipPath>
</defs>
</svg>
