<svg width="320" height="300" viewBox="0 0 320 300" fill="none" xmlns="http://www.w3.org/2000/svg">
<rect width="320" height="300" fill="white"/>
<path d="M49.94 246V226.4H52.236L61.028 241.212H59.796L68.476 226.4H70.772L70.8 246H68.112L68.084 230.628H68.728L61 243.62H59.712L51.928 230.628H52.628V246H49.94ZM76.6822 246V226.4H84.3262C86.0435 226.4 87.5089 226.671 88.7222 227.212C89.9355 227.753 90.8689 228.537 91.5222 229.564C92.1755 230.591 92.5022 231.813 92.5022 233.232C92.5022 234.651 92.1755 235.873 91.5222 236.9C90.8689 237.908 89.9355 238.683 88.7222 239.224C87.5089 239.765 86.0435 240.036 84.3262 240.036H78.2222L79.4822 238.748V246H76.6822ZM89.7862 246L84.8022 238.888H87.7982L92.8382 246H89.7862ZM79.4822 239.028L78.2222 237.656H84.2422C86.0342 237.656 87.3875 237.273 88.3022 236.508C89.2355 235.724 89.7022 234.632 89.7022 233.232C89.7022 231.832 89.2355 230.749 88.3022 229.984C87.3875 229.219 86.0342 228.836 84.2422 228.836H78.2222L79.4822 227.436V239.028ZM97.0259 246V226.4H99.8259V246H97.0259ZM118.953 246.168C117.516 246.168 116.228 245.851 115.089 245.216C113.969 244.581 113.083 243.695 112.429 242.556C111.776 241.417 111.449 240.092 111.449 238.58C111.449 237.068 111.776 235.752 112.429 234.632C113.083 233.493 113.969 232.607 115.089 231.972C116.228 231.337 117.516 231.02 118.953 231.02C120.204 231.02 121.333 231.3 122.341 231.86C123.349 232.42 124.152 233.26 124.749 234.38C125.365 235.5 125.673 236.9 125.673 238.58C125.673 240.26 125.375 241.66 124.777 242.78C124.199 243.9 123.405 244.749 122.397 245.328C121.389 245.888 120.241 246.168 118.953 246.168ZM119.177 243.816C120.111 243.816 120.951 243.601 121.697 243.172C122.463 242.743 123.06 242.136 123.489 241.352C123.937 240.549 124.161 239.625 124.161 238.58C124.161 237.516 123.937 236.601 123.489 235.836C123.06 235.052 122.463 234.445 121.697 234.016C120.951 233.587 120.111 233.372 119.177 233.372C118.225 233.372 117.376 233.587 116.629 234.016C115.883 234.445 115.285 235.052 114.837 235.836C114.389 236.601 114.165 237.516 114.165 238.58C114.165 239.625 114.389 240.549 114.837 241.352C115.285 242.136 115.883 242.743 116.629 243.172C117.376 243.601 118.225 243.816 119.177 243.816ZM124.245 246V241.996L124.413 238.552L124.133 235.108V225.224H126.821V246H124.245ZM131.907 246V231.16H134.595V246H131.907ZM133.251 228.304C132.729 228.304 132.29 228.136 131.935 227.8C131.599 227.464 131.431 227.053 131.431 226.568C131.431 226.064 131.599 225.644 131.935 225.308C132.29 224.972 132.729 224.804 133.251 224.804C133.774 224.804 134.203 224.972 134.539 225.308C134.894 225.625 135.071 226.027 135.071 226.512C135.071 227.016 134.903 227.445 134.567 227.8C134.231 228.136 133.793 228.304 133.251 228.304ZM148.94 246V242.864L148.8 242.276V236.928C148.8 235.789 148.464 234.912 147.792 234.296C147.138 233.661 146.149 233.344 144.824 233.344C143.946 233.344 143.088 233.493 142.248 233.792C141.408 234.072 140.698 234.455 140.12 234.94L139 232.924C139.765 232.308 140.68 231.841 141.744 231.524C142.826 231.188 143.956 231.02 145.132 231.02C147.166 231.02 148.734 231.515 149.836 232.504C150.937 233.493 151.488 235.005 151.488 237.04V246H148.94ZM144.068 246.168C142.966 246.168 141.996 245.981 141.156 245.608C140.334 245.235 139.7 244.721 139.252 244.068C138.804 243.396 138.58 242.64 138.58 241.8C138.58 240.997 138.766 240.269 139.14 239.616C139.532 238.963 140.157 238.44 141.016 238.048C141.893 237.656 143.069 237.46 144.544 237.46H149.248V239.392H144.656C143.312 239.392 142.406 239.616 141.94 240.064C141.473 240.512 141.24 241.053 141.24 241.688C141.24 242.416 141.529 243.004 142.108 243.452C142.686 243.881 143.489 244.096 144.516 244.096C145.524 244.096 146.401 243.872 147.148 243.424C147.913 242.976 148.464 242.323 148.8 241.464L149.332 243.312C148.977 244.189 148.352 244.889 147.456 245.412C146.56 245.916 145.43 246.168 144.068 246.168ZM162.958 251.6C161.595 251.6 160.27 251.404 158.982 251.012C157.713 250.639 156.677 250.097 155.874 249.388L157.162 247.316C157.853 247.913 158.702 248.38 159.71 248.716C160.718 249.071 161.773 249.248 162.874 249.248C164.629 249.248 165.917 248.837 166.738 248.016C167.559 247.195 167.97 245.944 167.97 244.264V241.128L168.25 238.188L168.11 235.22V231.16H170.658V243.984C170.658 246.597 170.005 248.52 168.698 249.752C167.391 250.984 165.478 251.6 162.958 251.6ZM162.622 245.384C161.185 245.384 159.897 245.085 158.758 244.488C157.638 243.872 156.742 243.023 156.07 241.94C155.417 240.857 155.09 239.607 155.09 238.188C155.09 236.751 155.417 235.5 156.07 234.436C156.742 233.353 157.638 232.513 158.758 231.916C159.897 231.319 161.185 231.02 162.622 231.02C163.891 231.02 165.049 231.281 166.094 231.804C167.139 232.308 167.97 233.092 168.586 234.156C169.221 235.22 169.538 236.564 169.538 238.188C169.538 239.793 169.221 241.128 168.586 242.192C167.97 243.256 167.139 244.059 166.094 244.6C165.049 245.123 163.891 245.384 162.622 245.384ZM162.93 243.032C163.919 243.032 164.797 242.827 165.562 242.416C166.327 242.005 166.925 241.436 167.354 240.708C167.802 239.98 168.026 239.14 168.026 238.188C168.026 237.236 167.802 236.396 167.354 235.668C166.925 234.94 166.327 234.38 165.562 233.988C164.797 233.577 163.919 233.372 162.93 233.372C161.941 233.372 161.054 233.577 160.27 233.988C159.505 234.38 158.898 234.94 158.45 235.668C158.021 236.396 157.806 237.236 157.806 238.188C157.806 239.14 158.021 239.98 158.45 240.708C158.898 241.436 159.505 242.005 160.27 242.416C161.054 242.827 161.941 243.032 162.93 243.032ZM183.718 231.02C184.931 231.02 185.995 231.253 186.91 231.72C187.843 232.187 188.571 232.896 189.094 233.848C189.617 234.8 189.878 236.004 189.878 237.46V246H187.19V237.768C187.19 236.331 186.835 235.248 186.126 234.52C185.435 233.792 184.455 233.428 183.186 233.428C182.234 233.428 181.403 233.615 180.694 233.988C179.985 234.361 179.434 234.912 179.042 235.64C178.669 236.368 178.482 237.273 178.482 238.356V246H175.794V231.16H178.37V235.164L177.95 234.1C178.435 233.129 179.182 232.373 180.19 231.832C181.198 231.291 182.374 231.02 183.718 231.02ZM201.209 246.168C199.715 246.168 198.39 245.841 197.233 245.188C196.075 244.535 195.161 243.639 194.489 242.5C193.817 241.343 193.481 240.036 193.481 238.58C193.481 237.105 193.817 235.799 194.489 234.66C195.161 233.521 196.075 232.635 197.233 232C198.39 231.347 199.715 231.02 201.209 231.02C202.683 231.02 203.999 231.347 205.157 232C206.333 232.635 207.247 233.521 207.901 234.66C208.573 235.78 208.909 237.087 208.909 238.58C208.909 240.055 208.573 241.361 207.901 242.5C207.247 243.639 206.333 244.535 205.157 245.188C203.999 245.841 202.683 246.168 201.209 246.168ZM201.209 243.816C202.161 243.816 203.01 243.601 203.757 243.172C204.522 242.743 205.119 242.136 205.549 241.352C205.978 240.549 206.193 239.625 206.193 238.58C206.193 237.516 205.978 236.601 205.549 235.836C205.119 235.052 204.522 234.445 203.757 234.016C203.01 233.587 202.161 233.372 201.209 233.372C200.257 233.372 199.407 233.587 198.661 234.016C197.914 234.445 197.317 235.052 196.869 235.836C196.421 236.601 196.197 237.516 196.197 238.58C196.197 239.625 196.421 240.549 196.869 241.352C197.317 242.136 197.914 242.743 198.661 243.172C199.407 243.601 200.257 243.816 201.209 243.816ZM216.882 246.168C215.65 246.168 214.474 246 213.354 245.664C212.253 245.328 211.385 244.917 210.75 244.432L211.87 242.304C212.505 242.733 213.289 243.097 214.222 243.396C215.155 243.695 216.107 243.844 217.078 243.844C218.329 243.844 219.225 243.667 219.766 243.312C220.326 242.957 220.606 242.463 220.606 241.828C220.606 241.361 220.438 240.997 220.102 240.736C219.766 240.475 219.318 240.279 218.758 240.148C218.217 240.017 217.61 239.905 216.938 239.812C216.266 239.7 215.594 239.569 214.922 239.42C214.25 239.252 213.634 239.028 213.074 238.748C212.514 238.449 212.066 238.048 211.73 237.544C211.394 237.021 211.226 236.331 211.226 235.472C211.226 234.576 211.478 233.792 211.982 233.12C212.486 232.448 213.195 231.935 214.11 231.58C215.043 231.207 216.145 231.02 217.414 231.02C218.385 231.02 219.365 231.141 220.354 231.384C221.362 231.608 222.183 231.935 222.818 232.364L221.67 234.492C220.998 234.044 220.298 233.736 219.57 233.568C218.842 233.4 218.114 233.316 217.386 233.316C216.21 233.316 215.333 233.512 214.754 233.904C214.175 234.277 213.886 234.763 213.886 235.36C213.886 235.864 214.054 236.256 214.39 236.536C214.745 236.797 215.193 237.003 215.734 237.152C216.294 237.301 216.91 237.432 217.582 237.544C218.254 237.637 218.926 237.768 219.598 237.936C220.27 238.085 220.877 238.3 221.418 238.58C221.978 238.86 222.426 239.252 222.762 239.756C223.117 240.26 223.294 240.932 223.294 241.772C223.294 242.668 223.033 243.443 222.51 244.096C221.987 244.749 221.25 245.263 220.298 245.636C219.346 245.991 218.207 246.168 216.882 246.168ZM231.749 246.168C230.256 246.168 229.099 245.767 228.277 244.964C227.456 244.161 227.045 243.013 227.045 241.52V227.912H229.733V241.408C229.733 242.211 229.929 242.827 230.321 243.256C230.732 243.685 231.311 243.9 232.057 243.9C232.897 243.9 233.597 243.667 234.157 243.2L234.997 245.132C234.587 245.487 234.092 245.748 233.513 245.916C232.953 246.084 232.365 246.168 231.749 246.168ZM224.525 233.372V231.16H233.989V233.372H224.525ZM238.247 246V231.16H240.935V246H238.247ZM239.591 228.304C239.069 228.304 238.63 228.136 238.275 227.8C237.939 227.464 237.771 227.053 237.771 226.568C237.771 226.064 237.939 225.644 238.275 225.308C238.63 224.972 239.069 224.804 239.591 224.804C240.114 224.804 240.543 224.972 240.879 225.308C241.234 225.625 241.411 226.027 241.411 226.512C241.411 227.016 241.243 227.445 240.907 227.8C240.571 228.136 240.133 228.304 239.591 228.304ZM252.536 246.168C251.024 246.168 249.67 245.841 248.476 245.188C247.3 244.535 246.376 243.639 245.704 242.5C245.032 241.361 244.696 240.055 244.696 238.58C244.696 237.105 245.032 235.799 245.704 234.66C246.376 233.521 247.3 232.635 248.476 232C249.67 231.347 251.024 231.02 252.536 231.02C253.88 231.02 255.074 231.291 256.12 231.832C257.184 232.355 258.005 233.139 258.584 234.184L256.54 235.5C256.054 234.772 255.457 234.24 254.748 233.904C254.057 233.549 253.31 233.372 252.508 233.372C251.537 233.372 250.669 233.587 249.904 234.016C249.138 234.445 248.532 235.052 248.084 235.836C247.636 236.601 247.412 237.516 247.412 238.58C247.412 239.644 247.636 240.568 248.084 241.352C248.532 242.136 249.138 242.743 249.904 243.172C250.669 243.601 251.537 243.816 252.508 243.816C253.31 243.816 254.057 243.648 254.748 243.312C255.457 242.957 256.054 242.416 256.54 241.688L258.584 242.976C258.005 244.003 257.184 244.796 256.12 245.356C255.074 245.897 253.88 246.168 252.536 246.168ZM266.32 246.168C265.088 246.168 263.912 246 262.792 245.664C261.69 245.328 260.822 244.917 260.188 244.432L261.308 242.304C261.942 242.733 262.726 243.097 263.66 243.396C264.593 243.695 265.545 243.844 266.516 243.844C267.766 243.844 268.662 243.667 269.204 243.312C269.764 242.957 270.044 242.463 270.044 241.828C270.044 241.361 269.876 240.997 269.54 240.736C269.204 240.475 268.756 240.279 268.196 240.148C267.654 240.017 267.048 239.905 266.376 239.812C265.704 239.7 265.032 239.569 264.36 239.42C263.688 239.252 263.072 239.028 262.512 238.748C261.952 238.449 261.504 238.048 261.168 237.544C260.832 237.021 260.664 236.331 260.664 235.472C260.664 234.576 260.916 233.792 261.42 233.12C261.924 232.448 262.633 231.935 263.548 231.58C264.481 231.207 265.582 231.02 266.852 231.02C267.822 231.02 268.802 231.141 269.792 231.384C270.8 231.608 271.621 231.935 272.256 232.364L271.108 234.492C270.436 234.044 269.736 233.736 269.008 233.568C268.28 233.4 267.552 233.316 266.824 233.316C265.648 233.316 264.77 233.512 264.192 233.904C263.613 234.277 263.324 234.763 263.324 235.36C263.324 235.864 263.492 236.256 263.828 236.536C264.182 236.797 264.63 237.003 265.172 237.152C265.732 237.301 266.348 237.432 267.02 237.544C267.692 237.637 268.364 237.768 269.036 237.936C269.708 238.085 270.314 238.3 270.856 238.58C271.416 238.86 271.864 239.252 272.2 239.756C272.554 240.26 272.732 240.932 272.732 241.772C272.732 242.668 272.47 243.443 271.948 244.096C271.425 244.749 270.688 245.263 269.736 245.636C268.784 245.991 267.645 246.168 266.32 246.168Z" fill="black"/>
<path d="M211.885 56.0156H116.855C107.544 56.0156 99.969 63.5922 99.969 72.9034V167.931C99.969 177.247 107.544 184.823 116.855 184.823H211.885C221.196 184.823 228.775 177.247 228.775 167.931V72.9034C228.775 63.5902 221.198 56.0156 211.885 56.0156ZM108.961 110.766L124.665 108.363H151.073C152.129 108.361 153.175 108.567 154.15 108.97C155.126 109.372 156.013 109.963 156.76 110.709C157.507 111.455 158.1 112.341 158.504 113.316C158.908 114.292 159.115 115.337 159.115 116.393C159.114 118.512 158.274 120.544 156.778 122.045C155.283 123.547 153.253 124.395 151.134 124.404L122.5 124.4C121.595 124.364 120.74 123.977 120.115 123.323C119.49 122.668 119.143 121.796 119.149 120.89C119.155 119.985 119.512 119.118 120.146 118.471C120.779 117.824 121.639 117.449 122.544 117.424H137.334L149.377 114.908L148.727 111.794L137.005 114.243H122.542C120.774 114.245 119.078 114.948 117.827 116.199C116.577 117.45 115.873 119.145 115.872 120.914C115.872 122.194 116.251 123.38 116.881 124.398L108.957 124.394V110.764L108.961 110.766ZM164.819 98.9928C159.73 98.9861 154.803 100.778 150.909 104.053H137.551C143.159 94.8998 153.222 88.7716 164.739 88.7716C182.356 88.7716 196.636 103.053 196.636 120.67C196.636 138.287 182.356 152.569 164.739 152.569C154.469 152.569 145.357 147.694 139.526 140.156H155.361C158.306 141.597 161.54 142.348 164.819 142.352C176.789 142.352 186.496 132.645 186.496 120.67C186.496 108.698 176.789 98.9908 164.819 98.9908V98.9928ZM176.923 116.52C176.919 118.612 176.087 120.616 174.608 122.094C173.129 123.573 171.125 124.405 169.034 124.408C166.942 124.408 164.937 123.577 163.458 122.098C161.979 120.619 161.148 118.614 161.148 116.523C161.148 114.431 161.979 112.426 163.458 110.947C164.937 109.468 166.942 108.637 169.034 108.637C171.125 108.638 173.13 109.468 174.609 110.946C176.089 112.424 176.921 114.429 176.923 116.52V116.52ZM108.986 135.848V129.618H175.45V135.848H108.986ZM164.737 169.906C144.443 169.906 127.019 157.653 119.434 140.152H135.567C141.859 149.559 152.572 155.758 164.737 155.758C184.116 155.758 199.821 140.05 199.821 120.672C199.821 101.296 184.116 85.5866 164.737 85.5866C151.38 85.5866 139.769 93.0575 133.842 104.047L123.972 104.042L117.889 104.989C124.405 85.3469 142.91 71.1708 164.737 71.1708C192.001 71.1708 214.105 93.2769 214.105 120.538C214.105 147.804 192.001 169.906 164.737 169.906Z" fill="#4F90CB"/>
<path d="M174.798 80.5003C168.243 78.8712 161.388 78.8712 154.833 80.5003C154.633 80.5495 154.445 80.6376 154.279 80.7597C154.114 80.8817 153.974 81.0353 153.867 81.2115C153.761 81.3878 153.691 81.5832 153.66 81.7867C153.63 81.9903 153.64 82.1978 153.689 82.3975C153.738 82.5976 153.825 82.7861 153.947 82.9521C154.069 83.118 154.223 83.2581 154.4 83.3641C154.576 83.4701 154.772 83.54 154.976 83.5697C155.179 83.5994 155.387 83.5883 155.586 83.537C161.615 82.0339 168.014 82.0339 174.038 83.537C174.238 83.5867 174.445 83.5967 174.648 83.5664C174.852 83.536 175.047 83.466 175.223 83.3601C175.399 83.2543 175.553 83.1148 175.675 82.9497C175.797 82.7845 175.886 82.5969 175.936 82.3975C175.985 82.1981 175.995 81.9908 175.965 81.7876C175.935 81.5843 175.865 81.389 175.759 81.2129C175.653 81.0367 175.513 80.8831 175.348 80.7608C175.183 80.6386 174.995 80.55 174.796 80.5003H174.798Z" fill="#4F90CB"/>
</svg>
