<svg width="320" height="300" viewBox="0 0 320 300" fill="none" xmlns="http://www.w3.org/2000/svg">
<rect width="320" height="300" fill="white"/>
<path d="M88.94 246V226.4H91.236L104.2 242.5H102.996V226.4H105.796V246H103.5L90.536 229.9H91.74V246H88.94ZM117.879 246.168C116.292 246.168 114.892 245.841 113.679 245.188C112.484 244.535 111.551 243.639 110.879 242.5C110.225 241.361 109.899 240.055 109.899 238.58C109.899 237.105 110.216 235.799 110.851 234.66C111.504 233.521 112.391 232.635 113.511 232C114.649 231.347 115.928 231.02 117.347 231.02C118.784 231.02 120.053 231.337 121.155 231.972C122.256 232.607 123.115 233.503 123.731 234.66C124.365 235.799 124.683 237.133 124.683 238.664C124.683 238.776 124.673 238.907 124.655 239.056C124.655 239.205 124.645 239.345 124.627 239.476H111.999V237.544H123.227L122.135 238.216C122.153 237.264 121.957 236.415 121.547 235.668C121.136 234.921 120.567 234.343 119.839 233.932C119.129 233.503 118.299 233.288 117.347 233.288C116.413 233.288 115.583 233.503 114.855 233.932C114.127 234.343 113.557 234.931 113.147 235.696C112.736 236.443 112.531 237.301 112.531 238.272V238.72C112.531 239.709 112.755 240.596 113.203 241.38C113.669 242.145 114.313 242.743 115.135 243.172C115.956 243.601 116.899 243.816 117.963 243.816C118.84 243.816 119.633 243.667 120.343 243.368C121.071 243.069 121.705 242.621 122.247 242.024L123.731 243.76C123.059 244.544 122.219 245.141 121.211 245.552C120.221 245.963 119.111 246.168 117.879 246.168ZM134.659 246.168C133.39 246.168 132.27 245.935 131.299 245.468C130.347 245.001 129.601 244.292 129.059 243.34C128.537 242.369 128.275 241.156 128.275 239.7V231.16H130.963V239.392C130.963 240.848 131.309 241.94 131.999 242.668C132.709 243.396 133.698 243.76 134.967 243.76C135.901 243.76 136.713 243.573 137.403 243.2C138.094 242.808 138.626 242.248 138.999 241.52C139.373 240.773 139.559 239.877 139.559 238.832V231.16H142.247V246H139.699V241.996L140.119 243.06C139.634 244.049 138.906 244.815 137.935 245.356C136.965 245.897 135.873 246.168 134.659 246.168ZM147.364 246V231.16H149.94V235.192L149.688 234.184C150.099 233.157 150.79 232.373 151.76 231.832C152.731 231.291 153.926 231.02 155.344 231.02V233.624C155.232 233.605 155.12 233.596 155.008 233.596C154.915 233.596 154.822 233.596 154.728 233.596C153.291 233.596 152.152 234.025 151.312 234.884C150.472 235.743 150.052 236.984 150.052 238.608V246H147.364ZM164.877 246.168C163.383 246.168 162.058 245.841 160.901 245.188C159.743 244.535 158.829 243.639 158.157 242.5C157.485 241.343 157.149 240.036 157.149 238.58C157.149 237.105 157.485 235.799 158.157 234.66C158.829 233.521 159.743 232.635 160.901 232C162.058 231.347 163.383 231.02 164.877 231.02C166.351 231.02 167.667 231.347 168.825 232C170.001 232.635 170.915 233.521 171.569 234.66C172.241 235.78 172.577 237.087 172.577 238.58C172.577 240.055 172.241 241.361 171.569 242.5C170.915 243.639 170.001 244.535 168.825 245.188C167.667 245.841 166.351 246.168 164.877 246.168ZM164.877 243.816C165.829 243.816 166.678 243.601 167.425 243.172C168.19 242.743 168.787 242.136 169.217 241.352C169.646 240.549 169.861 239.625 169.861 238.58C169.861 237.516 169.646 236.601 169.217 235.836C168.787 235.052 168.19 234.445 167.425 234.016C166.678 233.587 165.829 233.372 164.877 233.372C163.925 233.372 163.075 233.587 162.329 234.016C161.582 234.445 160.985 235.052 160.537 235.836C160.089 236.601 159.865 237.516 159.865 238.58C159.865 239.625 160.089 240.549 160.537 241.352C160.985 242.136 161.582 242.743 162.329 243.172C163.075 243.601 163.925 243.816 164.877 243.816ZM176.294 246V225.224H178.982V246H176.294ZM190.47 246.168C188.977 246.168 187.652 245.841 186.494 245.188C185.337 244.535 184.422 243.639 183.75 242.5C183.078 241.343 182.742 240.036 182.742 238.58C182.742 237.105 183.078 235.799 183.75 234.66C184.422 233.521 185.337 232.635 186.494 232C187.652 231.347 188.977 231.02 190.47 231.02C191.945 231.02 193.261 231.347 194.418 232C195.594 232.635 196.509 233.521 197.162 234.66C197.834 235.78 198.17 237.087 198.17 238.58C198.17 240.055 197.834 241.361 197.162 242.5C196.509 243.639 195.594 244.535 194.418 245.188C193.261 245.841 191.945 246.168 190.47 246.168ZM190.47 243.816C191.422 243.816 192.272 243.601 193.018 243.172C193.784 242.743 194.381 242.136 194.81 241.352C195.24 240.549 195.454 239.625 195.454 238.58C195.454 237.516 195.24 236.601 194.81 235.836C194.381 235.052 193.784 234.445 193.018 234.016C192.272 233.587 191.422 233.372 190.47 233.372C189.518 233.372 188.669 233.587 187.922 234.016C187.176 234.445 186.578 235.052 186.13 235.836C185.682 236.601 185.458 237.516 185.458 238.58C185.458 239.625 185.682 240.549 186.13 241.352C186.578 242.136 187.176 242.743 187.922 243.172C188.669 243.601 189.518 243.816 190.47 243.816ZM208.384 251.6C207.021 251.6 205.696 251.404 204.408 251.012C203.139 250.639 202.103 250.097 201.3 249.388L202.588 247.316C203.279 247.913 204.128 248.38 205.136 248.716C206.144 249.071 207.199 249.248 208.3 249.248C210.055 249.248 211.343 248.837 212.164 248.016C212.985 247.195 213.396 245.944 213.396 244.264V241.128L213.676 238.188L213.536 235.22V231.16H216.084V243.984C216.084 246.597 215.431 248.52 214.124 249.752C212.817 250.984 210.904 251.6 208.384 251.6ZM208.048 245.384C206.611 245.384 205.323 245.085 204.184 244.488C203.064 243.872 202.168 243.023 201.496 241.94C200.843 240.857 200.516 239.607 200.516 238.188C200.516 236.751 200.843 235.5 201.496 234.436C202.168 233.353 203.064 232.513 204.184 231.916C205.323 231.319 206.611 231.02 208.048 231.02C209.317 231.02 210.475 231.281 211.52 231.804C212.565 232.308 213.396 233.092 214.012 234.156C214.647 235.22 214.964 236.564 214.964 238.188C214.964 239.793 214.647 241.128 214.012 242.192C213.396 243.256 212.565 244.059 211.52 244.6C210.475 245.123 209.317 245.384 208.048 245.384ZM208.356 243.032C209.345 243.032 210.223 242.827 210.988 242.416C211.753 242.005 212.351 241.436 212.78 240.708C213.228 239.98 213.452 239.14 213.452 238.188C213.452 237.236 213.228 236.396 212.78 235.668C212.351 234.94 211.753 234.38 210.988 233.988C210.223 233.577 209.345 233.372 208.356 233.372C207.367 233.372 206.48 233.577 205.696 233.988C204.931 234.38 204.324 234.94 203.876 235.668C203.447 236.396 203.232 237.236 203.232 238.188C203.232 239.14 203.447 239.98 203.876 240.708C204.324 241.436 204.931 242.005 205.696 242.416C206.48 242.827 207.367 243.032 208.356 243.032ZM221.864 251.6C221.155 251.6 220.464 251.479 219.792 251.236C219.12 251.012 218.541 250.676 218.056 250.228L219.204 248.212C219.577 248.567 219.988 248.837 220.436 249.024C220.884 249.211 221.36 249.304 221.864 249.304C222.517 249.304 223.059 249.136 223.488 248.8C223.917 248.464 224.319 247.867 224.692 247.008L225.616 244.964L225.896 244.628L231.72 231.16H234.352L227.156 247.484C226.727 248.529 226.241 249.351 225.7 249.948C225.177 250.545 224.599 250.965 223.964 251.208C223.329 251.469 222.629 251.6 221.864 251.6ZM225.392 246.476L218.616 231.16H221.416L227.184 244.376L225.392 246.476Z" fill="black"/>
<path d="M237 121.641C237 114.863 234.983 108.237 231.203 102.598C227.423 96.9584 222.049 92.558 215.759 89.9512V82.0288C215.754 75.4022 213.472 68.9763 209.29 63.8173C205.108 58.6583 199.279 55.0764 192.769 53.6658C186.259 52.2552 179.46 53.1008 173.499 56.0622C167.539 59.0237 162.776 63.9229 160 69.9472C157.224 63.9229 152.461 59.0237 146.501 56.0622C140.54 53.1008 133.741 52.2552 127.231 53.6658C120.721 55.0764 114.892 58.6583 110.71 63.8173C106.528 68.9763 104.246 75.4022 104.241 82.0288V89.9512C97.951 92.558 92.5772 96.9584 88.7972 102.598C85.0171 108.237 83 114.863 83 121.641C83 128.418 85.0171 135.044 88.7972 140.684C92.5772 146.323 97.951 150.724 104.241 153.33V155.971C104.246 162.598 106.528 169.024 110.71 174.183C114.892 179.342 120.721 182.924 127.231 184.334C133.741 185.745 140.54 184.899 146.501 181.938C152.461 178.976 157.224 174.077 160 168.053C162.776 174.077 167.539 178.976 173.499 181.938C179.46 184.899 186.259 185.745 192.769 184.334C199.279 182.924 205.108 179.342 209.29 174.183C213.472 169.024 215.754 162.598 215.759 155.971V153.33C222.044 150.716 227.413 146.314 231.192 140.676C234.971 135.039 236.991 128.417 237 121.641V121.641ZM133.448 179.738C127.111 179.738 121.032 177.234 116.551 172.777C112.069 168.32 109.552 162.275 109.552 155.971V155.047C112.163 155.655 114.835 155.965 117.517 155.971H122.828C123.532 155.971 124.207 155.693 124.705 155.198C125.203 154.702 125.483 154.031 125.483 153.33C125.483 152.63 125.203 151.958 124.705 151.463C124.207 150.968 123.532 150.69 122.828 150.69H117.517C110.62 150.702 103.941 148.286 98.6629 143.871C93.3848 139.455 89.8482 133.324 88.6796 126.563C87.5109 119.802 88.7855 112.848 92.2777 106.933C95.7698 101.017 101.254 96.5218 107.759 94.2425C108.279 94.0548 108.729 93.7143 109.049 93.2661C109.369 92.818 109.544 92.2835 109.552 91.7338V82.0288C109.552 75.7254 112.069 69.6801 116.551 65.2229C121.032 60.7657 127.111 58.2616 133.448 58.2616C139.786 58.2616 145.864 60.7657 150.346 65.2229C154.827 69.6801 157.345 75.7254 157.345 82.0288V139.268C154.65 135.454 151.072 132.342 146.912 130.193C142.753 128.044 138.135 126.922 133.448 126.922C132.744 126.922 132.069 127.201 131.571 127.696C131.073 128.191 130.793 128.863 130.793 129.563C130.793 130.264 131.073 130.935 131.571 131.431C132.069 131.926 132.744 132.204 133.448 132.204C139.786 132.204 145.864 134.708 150.346 139.165C154.827 143.622 157.345 149.668 157.345 155.971C157.345 162.275 154.827 168.32 150.346 172.777C145.864 177.234 139.786 179.738 133.448 179.738V179.738ZM202.483 150.69H197.172C196.468 150.69 195.793 150.968 195.295 151.463C194.797 151.958 194.517 152.63 194.517 153.33C194.517 154.031 194.797 154.702 195.295 155.198C195.793 155.693 196.468 155.971 197.172 155.971H202.483C205.165 155.965 207.837 155.655 210.448 155.047V155.971C210.448 160.672 209.047 165.267 206.421 169.176C203.795 173.084 200.063 176.13 195.697 177.929C191.33 179.728 186.525 180.199 181.89 179.282C177.254 178.365 172.996 176.101 169.654 172.777C166.312 169.453 164.036 165.218 163.114 160.608C162.192 155.998 162.666 151.219 164.474 146.876C166.283 142.533 169.346 138.821 173.276 136.209C177.205 133.598 181.825 132.204 186.552 132.204C187.256 132.204 187.931 131.926 188.429 131.431C188.927 130.935 189.207 130.264 189.207 129.563C189.207 128.863 188.927 128.191 188.429 127.696C187.931 127.201 187.256 126.922 186.552 126.922C181.865 126.922 177.247 128.044 173.088 130.193C168.928 132.342 165.35 135.454 162.655 139.268V82.0288C162.655 75.7254 165.173 69.6801 169.654 65.2229C174.136 60.7657 180.214 58.2616 186.552 58.2616C192.889 58.2616 198.968 60.7657 203.449 65.2229C207.931 69.6801 210.448 75.7254 210.448 82.0288V91.7338C210.456 92.2835 210.631 92.818 210.951 93.2661C211.271 93.7143 211.721 94.0548 212.241 94.2425C218.746 96.5218 224.23 101.017 227.722 106.933C231.214 112.848 232.489 119.802 231.32 126.563C230.152 133.324 226.615 139.455 221.337 143.871C216.059 148.286 209.38 150.702 202.483 150.69V150.69ZM136.103 95.2328C136.086 100.831 133.842 106.194 129.863 110.152C125.883 114.11 120.49 116.342 114.862 116.359C114.158 116.359 113.483 116.081 112.985 115.586C112.487 115.09 112.207 114.419 112.207 113.718C112.207 113.018 112.487 112.346 112.985 111.851C113.483 111.356 114.158 111.078 114.862 111.078C119.082 111.06 123.124 109.385 126.108 106.418C129.092 103.45 130.776 99.4298 130.793 95.2328V89.9512C130.793 89.2508 131.073 88.5791 131.571 88.0839C132.069 87.5886 132.744 87.3104 133.448 87.3104C134.152 87.3104 134.828 87.5886 135.326 88.0839C135.824 88.5791 136.103 89.2508 136.103 89.9512V95.2328ZM207.793 113.718C207.793 114.419 207.513 115.09 207.015 115.586C206.517 116.081 205.842 116.359 205.138 116.359C199.51 116.342 194.117 114.11 190.137 110.152C186.158 106.194 183.914 100.831 183.897 95.2328V89.9512C183.897 89.2508 184.176 88.5791 184.674 88.0839C185.172 87.5886 185.848 87.3104 186.552 87.3104C187.256 87.3104 187.931 87.5886 188.429 88.0839C188.927 88.5791 189.207 89.2508 189.207 89.9512V95.2328C189.224 99.4298 190.908 103.45 193.892 106.418C196.876 109.385 200.918 111.06 205.138 111.078C205.842 111.078 206.517 111.356 207.015 111.851C207.513 112.346 207.793 113.018 207.793 113.718Z" fill="#4F90CB"/>
</svg>
