<svg width="52" height="79" viewBox="0 0 52 79" fill="none" xmlns="http://www.w3.org/2000/svg">
<path d="M26 7C24.1435 7 22.363 7.7375 21.0503 9.05025C19.7375 10.363 19 12.1435 19 14C19 15.8565 19.7375 17.637 21.0503 18.9497C22.363 20.2625 24.1435 21 26 21C27.8565 21 29.637 20.2625 30.9497 18.9497C32.2625 17.637 33 15.8565 33 14C33 12.1435 32.2625 10.363 30.9497 9.05025C29.637 7.7375 27.8565 7 26 7ZM13.75 43.75C13.2859 43.75 12.8408 43.9344 12.5126 44.2626C12.1844 44.5907 12 45.0359 12 45.5C12 45.9641 12.1844 46.4092 12.5126 46.7374C12.8408 47.0656 13.2859 47.25 13.75 47.25H38.25C38.7141 47.25 39.1593 47.0656 39.4874 46.7374C39.8156 46.4092 40 45.9641 40 45.5C40 45.0359 39.8156 44.5907 39.4874 44.2626C39.1593 43.9344 38.7141 43.75 38.25 43.75H13.75ZM5 7C5 5.14348 5.7375 3.36301 7.05025 2.05025C8.36301 0.737498 10.1435 0 12 0H40C41.8565 0 43.637 0.737498 44.9497 2.05025C46.2625 3.36301 47 5.14348 47 7V49C47 50.8565 46.2625 52.637 44.9497 53.9497C43.637 55.2625 41.8565 56 40 56H12C10.1435 56 8.36301 55.2625 7.05025 53.9497C5.7375 52.637 5 50.8565 5 49V7ZM40 3.5H12C11.0717 3.5 10.1815 3.86875 9.52513 4.52513C8.86875 5.1815 8.5 6.07174 8.5 7V35H15.5V28C15.5 27.0717 15.8688 26.1815 16.5251 25.5251C17.1815 24.8687 18.0717 24.5 19 24.5H33C33.9283 24.5 34.8185 24.8687 35.4749 25.5251C36.1313 26.1815 36.5 27.0717 36.5 28V35H43.5V7C43.5 6.07174 43.1313 5.1815 42.4749 4.52513C41.8185 3.86875 40.9283 3.5 40 3.5ZM8.5 38.5V49C8.5 49.9283 8.86875 50.8185 9.52513 51.4749C10.1815 52.1313 11.0717 52.5 12 52.5H40C40.9283 52.5 41.8185 52.1313 42.4749 51.4749C43.1313 50.8185 43.5 49.9283 43.5 49V38.5H8.5Z" fill="#4F90CB"/>
<path d="M1.47 76V66.2H5.292C6.15067 66.2 6.88333 66.3353 7.49 66.606C8.09667 66.8767 8.56333 67.2687 8.89 67.782C9.21667 68.2953 9.38 68.9067 9.38 69.616C9.38 70.3253 9.21667 70.9367 8.89 71.45C8.56333 71.954 8.09667 72.346 7.49 72.626C6.88333 72.8967 6.15067 73.032 5.292 73.032H2.24L2.87 72.374V76H1.47ZM2.87 72.514L2.24 71.814H5.25C6.146 71.814 6.82267 71.6227 7.28 71.24C7.74667 70.8573 7.98 70.316 7.98 69.616C7.98 68.916 7.74667 68.3747 7.28 67.992C6.82267 67.6093 6.146 67.418 5.25 67.418H2.24L2.87 66.718V72.514ZM15.7784 76V74.432L15.7084 74.138V71.464C15.7084 70.8947 15.5404 70.456 15.2044 70.148C14.8778 69.8307 14.3831 69.672 13.7204 69.672C13.2818 69.672 12.8524 69.7467 12.4324 69.896C12.0124 70.036 11.6578 70.2273 11.3684 70.47L10.8084 69.462C11.1911 69.154 11.6484 68.9207 12.1804 68.762C12.7218 68.594 13.2864 68.51 13.8744 68.51C14.8918 68.51 15.6758 68.7573 16.2264 69.252C16.7771 69.7467 17.0524 70.5027 17.0524 71.52V76H15.7784ZM13.3424 76.084C12.7918 76.084 12.3064 75.9907 11.8864 75.804C11.4758 75.6173 11.1584 75.3607 10.9344 75.034C10.7104 74.698 10.5984 74.32 10.5984 73.9C10.5984 73.4987 10.6918 73.1347 10.8784 72.808C11.0744 72.4813 11.3871 72.22 11.8164 72.024C12.2551 71.828 12.8431 71.73 13.5804 71.73H15.9324V72.696H13.6364C12.9644 72.696 12.5118 72.808 12.2784 73.032C12.0451 73.256 11.9284 73.5267 11.9284 73.844C11.9284 74.208 12.0731 74.502 12.3624 74.726C12.6518 74.9407 13.0531 75.048 13.5664 75.048C14.0704 75.048 14.5091 74.936 14.8824 74.712C15.2651 74.488 15.5404 74.1613 15.7084 73.732L15.9744 74.656C15.7971 75.0947 15.4844 75.4447 15.0364 75.706C14.5884 75.958 14.0238 76.084 13.3424 76.084ZM22.0876 76.084C21.341 76.084 20.7623 75.8833 20.3516 75.482C19.941 75.0807 19.7356 74.5067 19.7356 73.76V66.956H21.0796V73.704C21.0796 74.1053 21.1776 74.4133 21.3736 74.628C21.579 74.8427 21.8683 74.95 22.2416 74.95C22.6616 74.95 23.0116 74.8333 23.2916 74.6L23.7116 75.566C23.5063 75.7433 23.259 75.874 22.9696 75.958C22.6896 76.042 22.3956 76.084 22.0876 76.084ZM18.4756 69.686V68.58H23.2076V69.686H18.4756ZM25.3365 76V68.58H26.6805V76H25.3365ZM26.0085 67.152C25.7472 67.152 25.5278 67.068 25.3505 66.9C25.1825 66.732 25.0985 66.5267 25.0985 66.284C25.0985 66.032 25.1825 65.822 25.3505 65.654C25.5278 65.486 25.7472 65.402 26.0085 65.402C26.2698 65.402 26.4845 65.486 26.6525 65.654C26.8298 65.8127 26.9185 66.0133 26.9185 66.256C26.9185 66.508 26.8345 66.7227 26.6665 66.9C26.4985 67.068 26.2792 67.152 26.0085 67.152ZM32.5507 76.084C31.7573 76.084 31.0573 75.9207 30.4507 75.594C29.8533 75.2673 29.3867 74.8193 29.0507 74.25C28.724 73.6807 28.5607 73.0273 28.5607 72.29C28.5607 71.5527 28.7193 70.8993 29.0367 70.33C29.3633 69.7607 29.8067 69.3173 30.3667 69C30.936 68.6733 31.5753 68.51 32.2847 68.51C33.0033 68.51 33.638 68.6687 34.1887 68.986C34.7393 69.3033 35.1687 69.7513 35.4767 70.33C35.794 70.8993 35.9527 71.5667 35.9527 72.332C35.9527 72.388 35.948 72.4533 35.9387 72.528C35.9387 72.6027 35.934 72.6727 35.9247 72.738H29.6107V71.772H35.2247L34.6787 72.108C34.688 71.632 34.59 71.2073 34.3847 70.834C34.1793 70.4607 33.8947 70.1713 33.5307 69.966C33.176 69.7513 32.7607 69.644 32.2847 69.644C31.818 69.644 31.4027 69.7513 31.0387 69.966C30.6747 70.1713 30.39 70.4653 30.1847 70.848C29.9793 71.2213 29.8767 71.6507 29.8767 72.136V72.36C29.8767 72.8547 29.9887 73.298 30.2127 73.69C30.446 74.0727 30.768 74.3713 31.1787 74.586C31.5893 74.8007 32.0607 74.908 32.5927 74.908C33.0313 74.908 33.428 74.8333 33.7827 74.684C34.1467 74.5347 34.464 74.3107 34.7347 74.012L35.4767 74.88C35.1407 75.272 34.7207 75.5707 34.2167 75.776C33.722 75.9813 33.1667 76.084 32.5507 76.084ZM41.7809 68.51C42.3876 68.51 42.9196 68.6267 43.3769 68.86C43.8436 69.0933 44.2076 69.448 44.4689 69.924C44.7303 70.4 44.8609 71.002 44.8609 71.73V76H43.5169V71.884C43.5169 71.1653 43.3396 70.624 42.9849 70.26C42.6396 69.896 42.1496 69.714 41.5149 69.714C41.0389 69.714 40.6236 69.8073 40.2689 69.994C39.9143 70.1807 39.6389 70.456 39.4429 70.82C39.2563 71.184 39.1629 71.6367 39.1629 72.178V76H37.8189V68.58H39.1069V70.582L38.8969 70.05C39.1396 69.5647 39.5129 69.1867 40.0169 68.916C40.5209 68.6453 41.1089 68.51 41.7809 68.51ZM49.8962 76.084C49.1496 76.084 48.5709 75.8833 48.1602 75.482C47.7496 75.0807 47.5442 74.5067 47.5442 73.76V66.956H48.8882V73.704C48.8882 74.1053 48.9862 74.4133 49.1822 74.628C49.3876 74.8427 49.6769 74.95 50.0502 74.95C50.4702 74.95 50.8202 74.8333 51.1002 74.6L51.5202 75.566C51.3149 75.7433 51.0676 75.874 50.7782 75.958C50.4982 76.042 50.2042 76.084 49.8962 76.084ZM46.2842 69.686V68.58H51.0162V69.686H46.2842Z" fill="#4F90CB"/>
</svg>
