<svg width="320" height="300" viewBox="0 0 320 300" fill="none" xmlns="http://www.w3.org/2000/svg">
<rect width="320" height="300" fill="white"/>
<path d="M66.94 246V226.4H74.584C76.3013 226.4 77.7667 226.671 78.98 227.212C80.1933 227.753 81.1267 228.537 81.78 229.564C82.4333 230.591 82.76 231.813 82.76 233.232C82.76 234.651 82.4333 235.873 81.78 236.9C81.1267 237.908 80.1933 238.692 78.98 239.252C77.7667 239.793 76.3013 240.064 74.584 240.064H68.48L69.74 238.748V246H66.94ZM69.74 239.028L68.48 237.628H74.5C76.292 237.628 77.6453 237.245 78.56 236.48C79.4933 235.715 79.96 234.632 79.96 233.232C79.96 231.832 79.4933 230.749 78.56 229.984C77.6453 229.219 76.292 228.836 74.5 228.836H68.48L69.74 227.436V239.028ZM92.999 246.168C91.7297 246.168 90.6097 245.935 89.639 245.468C88.687 245.001 87.9404 244.292 87.399 243.34C86.8764 242.369 86.615 241.156 86.615 239.7V231.16H89.303V239.392C89.303 240.848 89.6484 241.94 90.339 242.668C91.0484 243.396 92.0377 243.76 93.307 243.76C94.2404 243.76 95.0524 243.573 95.743 243.2C96.4337 242.808 96.9657 242.248 97.339 241.52C97.7124 240.773 97.899 239.877 97.899 238.832V231.16H100.587V246H98.039V241.996L98.459 243.06C97.9737 244.049 97.2457 244.815 96.275 245.356C95.3044 245.897 94.2124 246.168 92.999 246.168ZM105.704 246V225.224H108.392V246H105.704ZM132.089 231.02C133.283 231.02 134.338 231.253 135.253 231.72C136.167 232.187 136.877 232.896 137.381 233.848C137.903 234.8 138.165 236.004 138.165 237.46V246H135.477V237.768C135.477 236.331 135.141 235.248 134.469 234.52C133.797 233.792 132.854 233.428 131.641 233.428C130.745 233.428 129.961 233.615 129.289 233.988C128.617 234.361 128.094 234.912 127.721 235.64C127.366 236.368 127.189 237.273 127.189 238.356V246H124.501V237.768C124.501 236.331 124.165 235.248 123.493 234.52C122.839 233.792 121.897 233.428 120.665 233.428C119.787 233.428 119.013 233.615 118.341 233.988C117.669 234.361 117.146 234.912 116.773 235.64C116.399 236.368 116.213 237.273 116.213 238.356V246H113.525V231.16H116.101V235.108L115.681 234.1C116.147 233.129 116.866 232.373 117.837 231.832C118.807 231.291 119.937 231.02 121.225 231.02C122.643 231.02 123.866 231.375 124.893 232.084C125.919 232.775 126.591 233.829 126.909 235.248L125.817 234.8C126.265 233.661 127.049 232.747 128.169 232.056C129.289 231.365 130.595 231.02 132.089 231.02ZM149.467 246.168C147.973 246.168 146.648 245.841 145.491 245.188C144.333 244.535 143.419 243.639 142.747 242.5C142.075 241.343 141.739 240.036 141.739 238.58C141.739 237.105 142.075 235.799 142.747 234.66C143.419 233.521 144.333 232.635 145.491 232C146.648 231.347 147.973 231.02 149.467 231.02C150.941 231.02 152.257 231.347 153.415 232C154.591 232.635 155.505 233.521 156.159 234.66C156.831 235.78 157.167 237.087 157.167 238.58C157.167 240.055 156.831 241.361 156.159 242.5C155.505 243.639 154.591 244.535 153.415 245.188C152.257 245.841 150.941 246.168 149.467 246.168ZM149.467 243.816C150.419 243.816 151.268 243.601 152.015 243.172C152.78 242.743 153.377 242.136 153.807 241.352C154.236 240.549 154.451 239.625 154.451 238.58C154.451 237.516 154.236 236.601 153.807 235.836C153.377 235.052 152.78 234.445 152.015 234.016C151.268 233.587 150.419 233.372 149.467 233.372C148.515 233.372 147.665 233.587 146.919 234.016C146.172 234.445 145.575 235.052 145.127 235.836C144.679 236.601 144.455 237.516 144.455 238.58C144.455 239.625 144.679 240.549 145.127 241.352C145.575 242.136 146.172 242.743 146.919 243.172C147.665 243.601 148.515 243.816 149.467 243.816ZM168.808 231.02C170.021 231.02 171.085 231.253 172 231.72C172.933 232.187 173.661 232.896 174.184 233.848C174.707 234.8 174.968 236.004 174.968 237.46V246H172.28V237.768C172.28 236.331 171.925 235.248 171.216 234.52C170.525 233.792 169.545 233.428 168.276 233.428C167.324 233.428 166.493 233.615 165.784 233.988C165.075 234.361 164.524 234.912 164.132 235.64C163.759 236.368 163.572 237.273 163.572 238.356V246H160.884V231.16H163.46V235.164L163.04 234.1C163.525 233.129 164.272 232.373 165.28 231.832C166.288 231.291 167.464 231.02 168.808 231.02ZM186.299 246.168C184.805 246.168 183.48 245.841 182.323 245.188C181.165 244.535 180.251 243.639 179.579 242.5C178.907 241.343 178.571 240.036 178.571 238.58C178.571 237.105 178.907 235.799 179.579 234.66C180.251 233.521 181.165 232.635 182.323 232C183.48 231.347 184.805 231.02 186.299 231.02C187.773 231.02 189.089 231.347 190.247 232C191.423 232.635 192.337 233.521 192.991 234.66C193.663 235.78 193.999 237.087 193.999 238.58C193.999 240.055 193.663 241.361 192.991 242.5C192.337 243.639 191.423 244.535 190.247 245.188C189.089 245.841 187.773 246.168 186.299 246.168ZM186.299 243.816C187.251 243.816 188.1 243.601 188.847 243.172C189.612 242.743 190.209 242.136 190.639 241.352C191.068 240.549 191.283 239.625 191.283 238.58C191.283 237.516 191.068 236.601 190.639 235.836C190.209 235.052 189.612 234.445 188.847 234.016C188.1 233.587 187.251 233.372 186.299 233.372C185.347 233.372 184.497 233.587 183.751 234.016C183.004 234.445 182.407 235.052 181.959 235.836C181.511 236.601 181.287 237.516 181.287 238.58C181.287 239.625 181.511 240.549 181.959 241.352C182.407 242.136 183.004 242.743 183.751 243.172C184.497 243.601 185.347 243.816 186.299 243.816ZM197.716 246V225.224H200.404V246H197.716ZM211.892 246.168C210.399 246.168 209.074 245.841 207.916 245.188C206.759 244.535 205.844 243.639 205.172 242.5C204.5 241.343 204.164 240.036 204.164 238.58C204.164 237.105 204.5 235.799 205.172 234.66C205.844 233.521 206.759 232.635 207.916 232C209.074 231.347 210.399 231.02 211.892 231.02C213.367 231.02 214.683 231.347 215.84 232C217.016 232.635 217.931 233.521 218.584 234.66C219.256 235.78 219.592 237.087 219.592 238.58C219.592 240.055 219.256 241.361 218.584 242.5C217.931 243.639 217.016 244.535 215.84 245.188C214.683 245.841 213.367 246.168 211.892 246.168ZM211.892 243.816C212.844 243.816 213.694 243.601 214.44 243.172C215.206 242.743 215.803 242.136 216.232 241.352C216.662 240.549 216.876 239.625 216.876 238.58C216.876 237.516 216.662 236.601 216.232 235.836C215.803 235.052 215.206 234.445 214.44 234.016C213.694 233.587 212.844 233.372 211.892 233.372C210.94 233.372 210.091 233.587 209.344 234.016C208.598 234.445 208 235.052 207.552 235.836C207.104 236.601 206.88 237.516 206.88 238.58C206.88 239.625 207.104 240.549 207.552 241.352C208 242.136 208.598 242.743 209.344 243.172C210.091 243.601 210.94 243.816 211.892 243.816ZM229.806 251.6C228.443 251.6 227.118 251.404 225.83 251.012C224.56 250.639 223.524 250.097 222.722 249.388L224.01 247.316C224.7 247.913 225.55 248.38 226.558 248.716C227.566 249.071 228.62 249.248 229.722 249.248C231.476 249.248 232.764 248.837 233.586 248.016C234.407 247.195 234.818 245.944 234.818 244.264V241.128L235.098 238.188L234.958 235.22V231.16H237.506V243.984C237.506 246.597 236.852 248.52 235.546 249.752C234.239 250.984 232.326 251.6 229.806 251.6ZM229.47 245.384C228.032 245.384 226.744 245.085 225.606 244.488C224.486 243.872 223.59 243.023 222.918 241.94C222.264 240.857 221.938 239.607 221.938 238.188C221.938 236.751 222.264 235.5 222.918 234.436C223.59 233.353 224.486 232.513 225.606 231.916C226.744 231.319 228.032 231.02 229.47 231.02C230.739 231.02 231.896 231.281 232.942 231.804C233.987 232.308 234.818 233.092 235.434 234.156C236.068 235.22 236.386 236.564 236.386 238.188C236.386 239.793 236.068 241.128 235.434 242.192C234.818 243.256 233.987 244.059 232.942 244.6C231.896 245.123 230.739 245.384 229.47 245.384ZM229.778 243.032C230.767 243.032 231.644 242.827 232.41 242.416C233.175 242.005 233.772 241.436 234.202 240.708C234.65 239.98 234.874 239.14 234.874 238.188C234.874 237.236 234.65 236.396 234.202 235.668C233.772 234.94 233.175 234.38 232.41 233.988C231.644 233.577 230.767 233.372 229.778 233.372C228.788 233.372 227.902 233.577 227.118 233.988C226.352 234.38 225.746 234.94 225.298 235.668C224.868 236.396 224.654 237.236 224.654 238.188C224.654 239.14 224.868 239.98 225.298 240.708C225.746 241.436 226.352 242.005 227.118 242.416C227.902 242.827 228.788 243.032 229.778 243.032ZM243.286 251.6C242.576 251.6 241.886 251.479 241.214 251.236C240.542 251.012 239.963 250.676 239.478 250.228L240.626 248.212C240.999 248.567 241.41 248.837 241.858 249.024C242.306 249.211 242.782 249.304 243.286 249.304C243.939 249.304 244.48 249.136 244.91 248.8C245.339 248.464 245.74 247.867 246.114 247.008L247.038 244.964L247.318 244.628L253.142 231.16H255.774L248.578 247.484C248.148 248.529 247.663 249.351 247.122 249.948C246.599 250.545 246.02 250.965 245.386 251.208C244.751 251.469 244.051 251.6 243.286 251.6ZM246.814 246.476L240.038 231.16H242.838L248.606 244.376L246.814 246.476Z" fill="black"/>
<path fill-rule="evenodd" clip-rule="evenodd" d="M156.056 47H163.944V104.194C163.944 109.709 166.169 111.854 167.905 112.868C168.098 112.979 168.291 113.081 168.488 113.176L168.473 111.697V111.689C168.323 97.7728 168.035 70.6666 189.484 70.6666C218.87 70.6666 239.866 173.246 227.272 183.714C214.673 194.183 189.484 187.899 176.89 175.34C166.721 165.199 167.601 141.501 168.232 124.492V124.485C168.271 123.451 168.311 122.441 168.342 121.459C166.795 121.079 165.309 120.482 163.929 119.684C162.44 118.819 161.112 117.705 160 116.391C158.829 117.779 157.476 118.86 156.071 119.68C154.494 120.603 152.94 121.14 151.654 121.459L151.768 124.488C152.399 141.501 153.279 165.199 143.11 175.34C130.516 187.903 105.323 194.183 92.7282 183.714C80.1337 173.25 101.13 70.6666 130.516 70.6666C151.969 70.6666 151.677 97.7728 151.527 111.689C151.522 112.184 151.517 112.68 151.512 113.176C151.709 113.081 151.906 112.979 152.095 112.868C153.831 111.854 156.056 109.709 156.056 104.194V47V47ZM189.484 78.5555C185.721 78.5555 183.607 79.7388 182.124 81.2653C180.412 83.0246 178.984 85.8567 177.983 89.8563C176.227 96.8577 176.302 104.912 176.365 111.409C176.373 112.533 176.381 113.61 176.381 114.627C176.381 117.625 176.251 121.215 176.109 124.95L175.951 129.399C175.778 134.827 175.675 140.507 175.939 145.998C176.2 151.52 176.819 156.588 177.975 160.837C179.146 165.128 180.712 168.007 182.459 169.751C187.504 174.78 195.464 178.843 203.582 180.417C211.609 181.975 218.07 180.823 221.856 177.944L221.919 177.786C222.282 176.779 222.533 175.735 222.669 174.674C223.13 171.617 223.249 167.353 222.937 162.099C222.318 151.646 220.069 138.389 216.508 125.337C212.942 112.241 208.189 99.8555 202.805 90.9332C200.111 86.4681 197.452 83.2021 194.987 81.1312C192.549 79.0801 190.743 78.5555 189.484 78.5555V78.5555ZM130.516 78.5555C134.279 78.5555 136.393 79.7388 137.876 81.2653C139.588 83.0246 141.016 85.8567 142.017 89.8563C143.773 96.8577 143.698 104.912 143.635 111.413C143.627 112.537 143.619 113.614 143.619 114.631C143.619 117.629 143.749 121.219 143.891 124.95L144.049 129.403C144.222 134.827 144.325 140.507 144.065 146.001C143.8 151.524 143.181 156.592 142.025 160.833C140.854 165.132 139.288 168.011 137.541 169.755C132.496 174.784 124.536 178.843 116.418 180.421C108.391 181.975 101.93 180.823 98.1438 177.944C97.7479 176.888 97.4753 175.791 97.3313 174.674C96.8698 171.621 96.7515 167.357 97.0631 162.103C97.6823 151.65 99.9306 138.389 103.492 125.34C107.062 112.241 111.811 99.8594 117.195 90.9371C119.889 86.4681 122.548 83.206 125.013 81.1352C127.451 79.0841 129.257 78.5555 130.516 78.5555V78.5555Z" fill="#4F90CB"/>
</svg>
