<svg width="320" height="300" viewBox="0 0 320 300" fill="none" xmlns="http://www.w3.org/2000/svg">
<rect width="320" height="300" fill="white"/>
<path d="M112.652 246.224C111.159 246.224 109.731 246 108.368 245.552C107.005 245.085 105.932 244.488 105.148 243.76L106.184 241.576C106.931 242.229 107.883 242.771 109.04 243.2C110.197 243.629 111.401 243.844 112.652 243.844C113.791 243.844 114.715 243.713 115.424 243.452C116.133 243.191 116.656 242.836 116.992 242.388C117.328 241.921 117.496 241.399 117.496 240.82C117.496 240.148 117.272 239.607 116.824 239.196C116.395 238.785 115.825 238.459 115.116 238.216C114.425 237.955 113.66 237.731 112.82 237.544C111.98 237.357 111.131 237.143 110.272 236.9C109.432 236.639 108.657 236.312 107.948 235.92C107.257 235.528 106.697 235.005 106.268 234.352C105.839 233.68 105.624 232.821 105.624 231.776C105.624 230.768 105.885 229.844 106.408 229.004C106.949 228.145 107.771 227.464 108.872 226.96C109.992 226.437 111.411 226.176 113.128 226.176C114.267 226.176 115.396 226.325 116.516 226.624C117.636 226.923 118.607 227.352 119.428 227.912L118.504 230.152C117.664 229.592 116.777 229.191 115.844 228.948C114.911 228.687 114.005 228.556 113.128 228.556C112.027 228.556 111.121 228.696 110.412 228.976C109.703 229.256 109.18 229.629 108.844 230.096C108.527 230.563 108.368 231.085 108.368 231.664C108.368 232.355 108.583 232.905 109.012 233.316C109.46 233.727 110.029 234.053 110.72 234.296C111.429 234.539 112.204 234.763 113.044 234.968C113.884 235.155 114.724 235.369 115.564 235.612C116.423 235.855 117.197 236.172 117.888 236.564C118.597 236.956 119.167 237.479 119.596 238.132C120.025 238.785 120.24 239.625 120.24 240.652C120.24 241.641 119.969 242.565 119.428 243.424C118.887 244.264 118.047 244.945 116.908 245.468C115.788 245.972 114.369 246.224 112.652 246.224ZM130.183 246.168C128.913 246.168 127.793 245.935 126.823 245.468C125.871 245.001 125.124 244.292 124.583 243.34C124.06 242.369 123.799 241.156 123.799 239.7V231.16H126.487V239.392C126.487 240.848 126.832 241.94 127.523 242.668C128.232 243.396 129.221 243.76 130.491 243.76C131.424 243.76 132.236 243.573 132.927 243.2C133.617 242.808 134.149 242.248 134.523 241.52C134.896 240.773 135.083 239.877 135.083 238.832V231.16H137.771V246H135.223V241.996L135.643 243.06C135.157 244.049 134.429 244.815 133.459 245.356C132.488 245.897 131.396 246.168 130.183 246.168ZM142.888 246V231.16H145.464V235.192L145.212 234.184C145.623 233.157 146.313 232.373 147.284 231.832C148.255 231.291 149.449 231.02 150.868 231.02V233.624C150.756 233.605 150.644 233.596 150.532 233.596C150.439 233.596 150.345 233.596 150.252 233.596C148.815 233.596 147.676 234.025 146.836 234.884C145.996 235.743 145.576 236.984 145.576 238.608V246H142.888ZM160.54 251.6C159.177 251.6 157.852 251.404 156.564 251.012C155.295 250.639 154.259 250.097 153.456 249.388L154.744 247.316C155.435 247.913 156.284 248.38 157.292 248.716C158.3 249.071 159.355 249.248 160.456 249.248C162.211 249.248 163.499 248.837 164.32 248.016C165.141 247.195 165.552 245.944 165.552 244.264V241.128L165.832 238.188L165.692 235.22V231.16H168.24V243.984C168.24 246.597 167.587 248.52 166.28 249.752C164.973 250.984 163.06 251.6 160.54 251.6ZM160.204 245.384C158.767 245.384 157.479 245.085 156.34 244.488C155.22 243.872 154.324 243.023 153.652 241.94C152.999 240.857 152.672 239.607 152.672 238.188C152.672 236.751 152.999 235.5 153.652 234.436C154.324 233.353 155.22 232.513 156.34 231.916C157.479 231.319 158.767 231.02 160.204 231.02C161.473 231.02 162.631 231.281 163.676 231.804C164.721 232.308 165.552 233.092 166.168 234.156C166.803 235.22 167.12 236.564 167.12 238.188C167.12 239.793 166.803 241.128 166.168 242.192C165.552 243.256 164.721 244.059 163.676 244.6C162.631 245.123 161.473 245.384 160.204 245.384ZM160.512 243.032C161.501 243.032 162.379 242.827 163.144 242.416C163.909 242.005 164.507 241.436 164.936 240.708C165.384 239.98 165.608 239.14 165.608 238.188C165.608 237.236 165.384 236.396 164.936 235.668C164.507 234.94 163.909 234.38 163.144 233.988C162.379 233.577 161.501 233.372 160.512 233.372C159.523 233.372 158.636 233.577 157.852 233.988C157.087 234.38 156.48 234.94 156.032 235.668C155.603 236.396 155.388 237.236 155.388 238.188C155.388 239.14 155.603 239.98 156.032 240.708C156.48 241.436 157.087 242.005 157.852 242.416C158.636 242.827 159.523 243.032 160.512 243.032ZM179.984 246.168C178.397 246.168 176.997 245.841 175.784 245.188C174.589 244.535 173.656 243.639 172.984 242.5C172.331 241.361 172.004 240.055 172.004 238.58C172.004 237.105 172.321 235.799 172.956 234.66C173.609 233.521 174.496 232.635 175.616 232C176.755 231.347 178.033 231.02 179.452 231.02C180.889 231.02 182.159 231.337 183.26 231.972C184.361 232.607 185.22 233.503 185.836 234.66C186.471 235.799 186.788 237.133 186.788 238.664C186.788 238.776 186.779 238.907 186.76 239.056C186.76 239.205 186.751 239.345 186.732 239.476H174.104V237.544H185.332L184.24 238.216C184.259 237.264 184.063 236.415 183.652 235.668C183.241 234.921 182.672 234.343 181.944 233.932C181.235 233.503 180.404 233.288 179.452 233.288C178.519 233.288 177.688 233.503 176.96 233.932C176.232 234.343 175.663 234.931 175.252 235.696C174.841 236.443 174.636 237.301 174.636 238.272V238.72C174.636 239.709 174.86 240.596 175.308 241.38C175.775 242.145 176.419 242.743 177.24 243.172C178.061 243.601 179.004 243.816 180.068 243.816C180.945 243.816 181.739 243.667 182.448 243.368C183.176 243.069 183.811 242.621 184.352 242.024L185.836 243.76C185.164 244.544 184.324 245.141 183.316 245.552C182.327 245.963 181.216 246.168 179.984 246.168ZM190.521 246V231.16H193.097V235.192L192.845 234.184C193.255 233.157 193.946 232.373 194.917 231.832C195.887 231.291 197.082 231.02 198.501 231.02V233.624C198.389 233.605 198.277 233.596 198.165 233.596C198.071 233.596 197.978 233.596 197.885 233.596C196.447 233.596 195.309 234.025 194.469 234.884C193.629 235.743 193.209 236.984 193.209 238.608V246H190.521ZM203.059 251.6C202.35 251.6 201.659 251.479 200.987 251.236C200.315 251.012 199.737 250.676 199.251 250.228L200.399 248.212C200.773 248.567 201.183 248.837 201.631 249.024C202.079 249.211 202.555 249.304 203.059 249.304C203.713 249.304 204.254 249.136 204.683 248.8C205.113 248.464 205.514 247.867 205.887 247.008L206.811 244.964L207.091 244.628L212.915 231.16H215.547L208.351 247.484C207.922 248.529 207.437 249.351 206.895 249.948C206.373 250.545 205.794 250.965 205.159 251.208C204.525 251.469 203.825 251.6 203.059 251.6ZM206.587 246.476L199.811 231.16H202.611L208.379 244.376L206.587 246.476Z" fill="black"/>
<path fill-rule="evenodd" clip-rule="evenodd" d="M159.905 157.4C162.46 157.396 164.96 158.146 167.099 159.558L173.082 51L176.367 51.1862L179.653 51L185.636 159.558C188.086 157.944 190.999 157.2 193.915 157.444C196.83 157.687 199.583 158.904 201.738 160.902C203.892 162.9 205.327 165.566 205.815 168.479C206.304 171.392 205.817 174.386 204.434 176.989C203.05 179.592 200.847 181.656 198.174 182.855C195.5 184.053 192.507 184.319 189.667 183.609C186.827 182.9 184.302 181.256 182.49 178.936C180.678 176.617 179.682 173.754 179.66 170.8L178.922 157.44H173.809L173.075 170.8C173.055 173.426 172.266 175.987 170.807 178.161C169.349 180.335 167.285 182.025 164.877 183.016C162.468 184.007 159.824 184.257 157.275 183.732C154.727 183.208 152.39 181.933 150.558 180.069C148.726 178.205 147.481 175.835 146.981 173.258C146.481 170.681 146.747 168.012 147.747 165.588C148.746 163.163 150.435 161.092 152.598 159.635C154.762 158.178 157.304 157.4 159.905 157.4ZM176.367 111.036L178.557 150.79H174.178L176.367 111.036V111.036ZM176.367 100.991C176.808 101.006 177.248 100.93 177.659 100.77C178.071 100.609 178.446 100.367 178.763 100.057C179.08 99.7474 179.332 99.3764 179.504 98.9663C179.677 98.5561 179.766 98.1152 179.766 97.6697C179.766 97.2243 179.678 96.7833 179.506 96.373C179.334 95.9626 179.082 95.5914 178.765 95.2812C178.449 94.9711 178.074 94.7284 177.662 94.5675C177.251 94.4066 176.812 94.3308 176.371 94.3447C175.516 94.3716 174.705 94.7333 174.11 95.3532C173.514 95.9732 173.181 96.8028 173.181 97.6664C173.18 98.5301 173.513 99.36 174.107 99.9806C174.702 100.601 175.513 100.964 176.367 100.991V100.991ZM159.905 164.05C158.158 164.05 156.483 164.751 155.248 165.998C154.013 167.245 153.32 168.936 153.32 170.7C153.32 172.464 154.013 174.155 155.248 175.402C156.483 176.649 158.158 177.35 159.905 177.35C161.651 177.35 163.326 176.649 164.561 175.402C165.796 174.155 166.49 172.464 166.49 170.7C166.49 168.936 165.796 167.245 164.561 165.998C163.326 164.751 161.651 164.05 159.905 164.05ZM186.245 170.7C186.245 168.936 186.939 167.245 188.174 165.998C189.409 164.751 191.084 164.05 192.83 164.05C194.577 164.05 196.252 164.751 197.487 165.998C198.721 167.245 199.415 168.936 199.415 170.7C199.415 172.464 198.721 174.155 197.487 175.402C196.252 176.649 194.577 177.35 192.83 177.35C191.084 177.35 189.409 176.649 188.174 175.402C186.939 174.155 186.245 172.464 186.245 170.7ZM133.564 51.7781L128.579 54.8005L130.272 57.65C128.579 54.8005 128.573 54.8005 128.573 54.8005L128.57 54.8038L128.556 54.8104L128.533 54.8271L128.474 54.8637C128.24 55.012 128.013 55.1729 127.796 55.3458C127.236 55.7771 126.702 56.2412 126.196 56.7356C124.915 57.9792 123.272 59.8811 121.603 62.6375C118.257 68.167 114.879 77.0115 114.02 90.6772C113.756 94.8434 116.144 98.3513 119.545 99.9506C118.77 100.723 118.154 101.644 117.735 102.659C117.315 103.674 117.1 104.763 117.102 105.862V175.687C117.102 177.892 117.969 180.006 119.513 181.565C121.056 183.124 123.15 184 125.333 184C127.516 184 129.61 183.124 131.153 181.565C132.697 180.006 133.564 177.892 133.564 175.687V105.862C133.564 102.89 132.02 100.283 129.699 98.8135C130.902 97.883 131.877 96.6851 132.547 95.3127C133.217 93.9403 133.565 92.4303 133.564 90.9V51.7781ZM120.592 91.0995C121.369 78.7504 124.319 71.0664 126.979 66.5144V90.9C126.979 91.7818 126.632 92.6276 126.015 93.2511C125.397 93.8747 124.56 94.225 123.687 94.225C121.813 94.225 120.49 92.7154 120.592 91.0995ZM126.979 106.148V105.862C126.979 105.422 126.806 104.999 126.497 104.687C126.188 104.375 125.77 104.2 125.333 104.2C124.896 104.2 124.478 104.375 124.169 104.687C123.86 104.999 123.687 105.422 123.687 105.862V109.473L126.979 106.148ZM126.979 115.552V119.448L123.687 122.773V118.877L126.979 115.552ZM126.979 132.748V128.852L123.687 132.177V136.073L126.979 132.748ZM126.979 142.152V175.687C126.979 176.128 126.806 176.551 126.497 176.863C126.188 177.175 125.77 177.35 125.333 177.35C124.896 177.35 124.478 177.175 124.169 176.863C123.86 176.551 123.687 176.128 123.687 175.687V145.477L126.979 142.152V142.152Z" fill="#4F90CB"/>
</svg>
